<svg version="1.1" id="Layer_1" xmlns="http://www.w3.org/2000/svg" xmlns:xlink="http://www.w3.org/1999/xlink" x="0px" y="0px"
	 width="100%" viewBox="0 0 512 512" enable-background="new 0 0 512 512" xml:space="preserve">
<path fill="#000000" opacity="1.000000" stroke="none" 
	d="
M295.000000,513.000000 
	C196.690536,513.000000 98.881065,513.000000 1.035801,513.000000 
	C1.035801,342.398834 1.035801,171.797684 1.035801,1.098256 
	C171.559479,1.098256 342.119049,1.098256 512.839294,1.098256 
	C512.839294,171.666550 512.839294,342.333252 512.839294,513.000000 
	C440.464325,513.000000 367.982147,513.000000 295.000000,513.000000 
M64.977798,420.963593 
	C64.945145,434.965088 64.912491,448.966553 63.958027,462.998260 
	C55.294964,463.000641 46.631687,462.966766 37.968899,463.016693 
	C30.751274,463.058289 26.063246,467.840698 26.012535,475.143951 
	C25.978989,479.975220 25.987045,484.807007 26.010183,489.638367 
	C26.045040,496.917206 30.506674,501.906281 37.788509,501.936432 
	C69.275993,502.066772 100.764626,502.063751 132.252136,501.936005 
	C139.233414,501.907654 143.955383,496.615173 143.989197,489.604431 
	C144.013306,484.606445 144.169724,479.599030 143.907806,474.614685 
	C143.802048,472.601898 143.068588,470.447418 142.045944,468.692352 
	C139.609772,464.511414 135.623749,462.976013 130.897888,462.995148 
	C121.985687,463.031250 113.073235,463.005585 104.292755,463.005585 
	C104.292755,448.257599 104.292755,434.329590 104.292755,419.994141 
	C113.548088,419.994141 122.510521,420.065979 131.471207,419.971924 
	C138.961456,419.893311 143.981720,415.021576 143.983109,407.885681 
	C143.999985,321.251953 144.005035,234.618210 143.977982,147.984482 
	C143.975159,138.951218 136.799011,129.900757 127.986893,128.074844 
	C123.545753,127.154617 118.949333,126.983765 113.994316,126.425766 
	C113.994316,118.647095 113.995155,110.853264 113.994095,103.059425 
	C113.993004,94.977982 110.187172,91.106598 102.082710,91.014839 
	C97.821358,90.966591 93.559006,91.006317 88.994324,91.006317 
	C88.994324,88.510971 88.994324,86.699371 88.994324,84.887764 
	C88.994255,64.228951 88.923393,43.569641 89.068527,22.911846 
	C89.090950,19.720074 87.968582,17.097111 85.107918,17.442541 
	C83.233337,17.668900 81.518311,20.573845 80.100121,22.544212 
	C79.544685,23.315908 79.989220,24.811935 79.989136,25.978077 
	C79.987793,45.803875 79.988144,65.629677 79.988129,85.455475 
	C79.988129,87.213348 79.988129,88.971222 79.988129,91.006096 
	C77.129883,91.006096 74.979118,91.084892 72.835632,90.993439 
	C57.854523,90.354240 55.109444,94.171471 55.937527,107.549248 
	C56.333546,113.946983 56.005684,120.389534 56.005684,127.006699 
	C52.579010,127.006699 49.914017,126.867569 47.267677,127.030807 
	C35.861240,127.734451 25.848597,136.715790 25.881502,148.843033 
	C26.114775,234.809738 26.091227,320.777557 25.864637,406.744324 
	C25.843498,414.763672 31.718729,420.212158 39.395096,420.041046 
	C47.887142,419.851746 56.387199,420.021790 64.977798,420.963593 
M488.000000,286.500000 
	C487.999969,237.688126 488.002289,188.876266 487.997559,140.064392 
	C487.996765,131.907715 483.138489,127.027916 474.866882,127.012260 
	C455.042297,126.974724 435.217529,126.982307 415.392883,127.008514 
	C406.898651,127.019745 402.001129,131.979080 402.001007,140.466537 
	C401.999512,256.415894 402.084106,372.365448 401.818817,488.314209 
	C401.800262,496.410950 408.443665,502.229828 415.518738,502.112915 
	C435.171448,501.788269 454.833862,501.896576 474.490692,502.054016 
	C481.775696,502.112366 488.186798,497.432678 488.149628,488.411652 
	C487.873688,421.442017 488.000000,354.470764 488.000000,286.500000 
M374.996246,434.500000 
	C374.996246,370.179962 374.996307,305.859924 374.996216,241.539871 
	C374.996216,229.542343 375.052551,217.544434 374.972931,205.547440 
	C374.928925,198.913422 368.709229,192.107513 362.281647,192.060898 
	C342.120209,191.914673 321.956360,191.915176 301.794861,192.058502 
	C295.109528,192.106033 289.959900,196.186340 289.107941,202.794312 
	C288.160980,210.139099 288.051483,217.626846 288.045929,225.052704 
	C287.980865,311.701477 288.002075,398.350342 288.006897,484.999176 
	C288.007538,496.363342 293.415131,501.989929 304.317322,501.994385 
	C322.980133,502.001984 341.642975,502.001160 360.305786,501.994171 
	C368.768402,501.990997 374.983490,495.865631 374.991241,487.489288 
	C375.007263,470.159515 374.996185,452.829773 374.996246,434.500000 
M229.000259,200.499603 
	C224.300049,202.664902 219.531143,204.694901 214.920288,207.036133 
	C210.867432,209.094040 210.276505,213.086945 211.170197,216.848145 
	C211.982788,220.268005 215.009430,221.663361 218.556488,220.966125 
	C220.901199,220.505234 223.332397,220.040695 225.468933,219.034393 
	C243.043106,210.757156 260.577423,202.394455 278.083221,193.973175 
	C291.808014,187.370758 305.283325,180.209000 319.229980,174.121689 
	C329.838409,169.491364 339.335754,164.015320 346.854797,154.878647 
	C353.577148,146.710037 361.334961,139.384811 368.737274,131.786240 
	C383.929657,116.191086 399.242432,100.712997 414.402069,85.086250 
	C423.116760,76.103035 431.628723,66.923119 440.383667,57.671432 
	C442.143921,59.521233 443.332550,60.931339 444.690369,62.153454 
	C446.138947,63.457218 447.692139,64.663353 449.296478,65.772026 
	C454.124481,69.108383 457.263092,68.088470 458.971405,62.516151 
	C461.052643,55.727257 462.998688,48.896301 464.947906,42.067738 
	C466.632935,36.164501 468.512177,30.294640 469.737946,24.294077 
	C470.178467,22.137596 469.593170,19.157391 468.290588,17.466112 
	C467.358734,16.256210 464.134430,15.716107 462.477448,16.334948 
	C449.942596,21.016481 437.486115,25.922672 425.123199,31.043667 
	C418.666290,33.718239 418.111847,37.584450 423.123352,42.584583 
	C424.895721,44.352921 426.972321,45.816341 428.738495,47.277142 
	C423.706177,52.819241 419.018738,58.169182 414.128021,63.326427 
	C405.452118,72.475113 396.692963,81.545914 387.896210,90.578766 
	C372.937836,105.938576 357.910156,121.230858 342.951721,136.590637 
	C341.362579,138.222427 340.204254,140.284988 338.566254,141.855942 
	C332.671875,147.509079 327.611450,153.955383 319.547272,157.249374 
	C309.074890,161.527023 299.010681,166.807800 288.789856,171.696640 
	C269.060547,181.133545 249.344559,190.598389 229.000259,200.499603 
M175.001663,443.500000 
	C175.001709,458.322388 175.305984,473.153198 174.894012,487.964142 
	C174.623001,497.706635 180.096695,502.091888 188.990021,502.035339 
	C208.141800,501.913544 227.294876,501.998474 246.447433,501.997742 
	C257.419617,501.997345 261.996521,497.434784 261.997192,486.469635 
	C262.000427,432.675964 261.998749,378.882263 261.998718,325.088593 
	C261.998688,302.105530 262.032928,279.122406 261.982605,256.139435 
	C261.960205,245.917252 256.383759,240.731842 246.927719,240.898956 
	C227.448166,241.243240 207.958008,241.062836 188.472763,240.974670 
	C179.963928,240.936157 174.867950,245.799927 174.896027,254.638809 
	C175.094940,317.258667 175.001740,379.879486 175.001663,443.500000 
z"/>
<path fill="#3A65CD" opacity="1.000000" stroke="none" 
	d="
M64.883774,420.035339 
	C56.387199,420.021790 47.887142,419.851746 39.395096,420.041046 
	C31.718729,420.212158 25.843498,414.763672 25.864637,406.744324 
	C26.091227,320.777557 26.114775,234.809738 25.881502,148.843033 
	C25.848597,136.715790 35.861240,127.734451 47.267677,127.030807 
	C49.914017,126.867569 52.579010,127.006699 56.005684,127.006699 
	C56.005684,120.389534 56.333546,113.946983 55.937527,107.549248 
	C55.109444,94.171471 57.854523,90.354240 72.835632,90.993439 
	C74.979118,91.084892 77.129883,91.006096 79.988129,91.006096 
	C79.988129,88.971222 79.988129,87.213348 79.988129,85.455475 
	C79.988144,65.629677 79.987793,45.803875 79.989136,25.978077 
	C79.989220,24.811935 79.544685,23.315908 80.100121,22.544212 
	C81.518311,20.573845 83.233337,17.668900 85.107918,17.442541 
	C87.968582,17.097111 89.090950,19.720074 89.068527,22.911846 
	C88.923393,43.569641 88.994255,64.228951 88.994324,84.887764 
	C88.994324,86.699371 88.994324,88.510971 88.994324,91.006317 
	C93.559006,91.006317 97.821358,90.966591 102.082710,91.014839 
	C110.187172,91.106598 113.993004,94.977982 113.994095,103.059425 
	C113.995155,110.853264 113.994316,118.647095 113.994316,126.425766 
	C118.949333,126.983765 123.545753,127.154617 127.986893,128.074844 
	C136.799011,129.900757 143.975159,138.951218 143.977982,147.984482 
	C144.005035,234.618210 143.999985,321.251953 143.983109,407.885681 
	C143.981720,415.021576 138.961456,419.893311 131.471207,419.971924 
	C122.510521,420.065979 113.548088,419.994141 104.292755,419.994141 
	C104.292755,434.329590 104.292755,448.257599 104.292755,463.005585 
	C113.073235,463.005585 121.985687,463.031250 130.897888,462.995148 
	C135.623749,462.976013 139.609772,464.511414 142.045944,468.692352 
	C143.068588,470.447418 143.802048,472.601898 143.907806,474.614685 
	C144.169724,479.599030 144.013306,484.606445 143.989197,489.604431 
	C143.955383,496.615173 139.233414,501.907654 132.252136,501.936005 
	C100.764626,502.063751 69.275993,502.066772 37.788509,501.936432 
	C30.506674,501.906281 26.045040,496.917206 26.010183,489.638367 
	C25.987045,484.807007 25.978989,479.975220 26.012535,475.143951 
	C26.063246,467.840698 30.751274,463.058289 37.968899,463.016693 
	C46.631687,462.966766 55.294964,463.000641 64.694420,462.672668 
	C65.571327,448.806885 65.723671,435.266754 65.810677,421.726196 
	C65.814285,421.164581 65.206642,420.599060 64.883774,420.035339 
M74.500031,338.180511 
	C87.833008,338.179840 101.167015,338.255402 114.497604,338.076599 
	C116.062347,338.055603 118.928581,336.684204 118.959732,335.854980 
	C119.288231,327.112396 119.163002,318.352783 119.163002,309.065674 
	C111.106674,309.065674 103.794411,309.321625 96.522820,308.890869 
	C94.637344,308.779175 91.591087,306.740479 91.325562,305.199646 
	C90.738274,301.791656 93.718094,301.044037 96.669418,301.055237 
	C102.835938,301.078613 109.005455,300.946381 115.168007,301.103271 
	C118.142326,301.179016 119.347633,300.217255 119.289970,297.119965 
	C119.141098,289.122772 119.150665,281.119507 119.286575,273.121887 
	C119.337944,270.099548 118.250320,268.980347 115.216896,269.064575 
	C109.388145,269.226410 103.551620,269.115845 97.718353,269.104370 
	C94.681953,269.098389 91.032661,269.381622 91.182640,265.035522 
	C91.326569,260.864868 94.938179,261.101654 97.979248,261.095764 
	C103.812508,261.084503 109.647850,260.995361 115.478188,261.124969 
	C118.279701,261.187256 119.314034,260.117737 119.276665,257.331024 
	C119.169426,249.332550 119.112473,241.328659 119.301514,233.333160 
	C119.382759,229.896744 117.896721,229.076614 114.814758,229.155197 
	C108.818756,229.308060 102.816010,229.194916 96.816055,229.194778 
	C94.025108,229.194717 91.054642,229.095932 91.116051,225.326096 
	C91.173607,221.792343 93.994347,221.229828 96.832008,221.205521 
	C102.831543,221.154160 108.834846,221.065430 114.830414,221.224792 
	C117.939346,221.307434 119.378662,220.431107 119.297775,217.031174 
	C119.115479,209.368912 119.093903,201.695297 119.304420,194.034470 
	C119.405830,190.344223 117.757057,189.520370 114.498566,189.611343 
	C108.669952,189.774124 102.832909,189.689346 97.000237,189.628021 
	C94.232613,189.598923 91.248795,189.278717 91.115982,185.709930 
	C90.970871,181.810623 94.053642,181.346008 97.039566,181.311325 
	C102.705452,181.245499 108.386215,181.044403 114.034752,181.362289 
	C118.317497,181.603287 119.502213,179.928955 119.318199,175.886597 
	C119.038055,169.732727 119.003815,163.544098 119.325867,157.394348 
	C119.554955,153.019836 118.117378,151.627228 113.679039,151.679428 
	C95.015091,151.898972 76.347069,151.768463 57.680534,151.772781 
	C50.649693,151.774414 50.639599,151.782700 50.639240,158.940964 
	C50.636356,216.440536 50.637524,273.940125 50.638035,331.439697 
	C50.638042,332.439667 50.710663,333.444519 50.636600,334.438690 
	C50.426121,337.263947 51.772224,338.248291 54.500778,338.204315 
	C60.832348,338.102264 67.166779,338.177521 74.500031,338.180511 
M42.363899,314.500061 
	C42.363838,262.836884 42.362709,211.173691 42.367744,159.510513 
	C42.367939,157.511551 42.292435,155.499542 42.484154,153.516037 
	C43.089195,147.256195 46.594456,143.786911 52.929218,143.754227 
	C74.260521,143.644119 95.593140,143.640274 116.924377,143.757080 
	C123.525551,143.793228 126.994064,147.444611 127.294792,154.029648 
	C127.401138,156.358292 127.332130,158.695190 127.333229,161.028320 
	C127.336342,167.640915 127.334320,174.253494 127.334320,181.051941 
	C130.466537,181.051941 132.871735,181.051941 135.514435,181.051941 
	C135.514435,169.600815 136.028015,158.452850 135.331635,147.380997 
	C134.876816,140.149841 129.017380,135.844223 121.367088,135.813492 
	C97.035812,135.715714 72.700890,135.592407 48.375496,135.983643 
	C44.799534,136.041153 40.261948,137.967484 37.988853,140.600174 
	C35.556496,143.417313 34.222832,148.090973 34.213440,151.958694 
	C34.009541,235.952713 34.057583,319.947357 34.060581,403.941864 
	C34.060623,405.107605 33.678268,406.555206 34.221619,407.377502 
	C35.202805,408.862396 36.712139,411.022888 38.066296,411.071289 
	C47.175812,411.396759 56.302532,411.240784 65.670670,411.240784 
	C65.670670,398.530396 65.670670,386.305786 65.670670,373.604309 
	C61.384911,373.604309 57.412144,373.634857 53.439999,373.598022 
	C44.970631,373.519501 42.404163,370.992249 42.378826,362.496979 
	C42.332108,346.831451 42.364738,331.165741 42.363899,314.500061 
M34.020218,476.968567 
	C34.014549,479.797943 33.993942,482.627411 34.006191,485.456726 
	C34.035385,492.198914 34.785866,492.992523 41.422203,492.996460 
	C68.052200,493.012268 94.682213,493.011078 121.312218,493.000854 
	C137.844025,492.994507 135.927094,494.766541 135.981461,477.241913 
	C135.992264,473.762207 134.253540,472.010559 130.769485,472.010376 
	C100.311478,472.008575 69.852921,471.939606 39.396832,472.181335 
	C37.611877,472.195496 35.846867,474.722229 34.020218,476.968567 
M135.821075,406.939148 
	C135.821075,374.409576 135.821075,341.879974 135.821075,309.456787 
	C132.551987,309.456787 130.153931,309.456787 127.327255,309.456787 
	C127.327255,311.643127 127.327339,313.446594 127.327240,315.250061 
	C127.326347,331.229401 127.356567,347.208801 127.311073,363.188019 
	C127.289078,370.914429 124.821182,373.380035 117.205597,373.465759 
	C112.918579,373.514008 108.630569,373.474457 104.253708,373.474457 
	C104.253708,386.344208 104.253708,398.578369 104.253708,411.270874 
	C113.521896,411.270874 122.477829,411.425629 131.417755,411.116791 
	C132.886841,411.066071 134.285553,408.978058 135.821075,406.939148 
M88.500000,346.004883 
	C80.500992,346.004883 72.501976,346.004852 64.502968,346.004852 
	C50.862465,346.004852 51.028767,346.006409 50.902100,359.699799 
	C50.858154,364.450287 52.350727,366.225006 57.203568,366.065765 
	C73.163704,365.541901 89.132980,365.221069 105.101204,365.041382 
	C119.456169,364.879852 119.331291,365.009491 119.085831,350.702911 
	C119.019737,346.850433 117.523682,345.875000 113.995758,345.950470 
	C105.833855,346.125122 97.665649,346.005280 88.500000,346.004883 
M96.439529,127.762863 
	C99.506912,127.762863 102.574287,127.762863 105.901604,127.762863 
	C105.901604,119.052841 106.057449,111.243462 105.742821,103.453079 
	C105.692436,102.205742 103.559517,100.026909 102.350525,99.999641 
	C90.720192,99.737305 79.080299,99.769310 67.447212,99.962433 
	C66.300034,99.981476 64.225655,101.605034 64.196693,102.534210 
	C63.939762,110.775856 64.047356,119.028870 64.047356,127.762688 
	C74.917671,127.762688 85.187798,127.762688 96.439529,127.762863 
M95.950279,458.242859 
	C95.950104,446.757935 95.847984,435.271576 96.012459,423.789001 
	C96.061188,420.386841 95.094627,418.938110 91.514404,419.140900 
	C87.200607,419.385223 82.853386,419.369995 78.537582,419.143829 
	C75.094810,418.963409 73.874687,420.133331 73.929695,423.675781 
	C74.113136,435.490753 74.096046,447.311646 73.937164,459.127319 
	C73.892029,462.483978 74.761803,464.024445 78.385681,463.817688 
	C82.699333,463.571594 87.043129,463.624115 91.363571,463.800110 
	C94.779243,463.939240 96.395782,462.676880 95.950279,458.242859 
M94.130814,411.049133 
	C94.728691,410.015656 95.832916,408.988556 95.846046,407.947754 
	C95.975815,397.657471 95.882851,387.364685 95.952927,377.073242 
	C95.971588,374.332458 94.531021,373.730591 92.191833,373.761505 
	C87.378708,373.825134 82.561806,373.869720 77.751053,373.745056 
	C74.965714,373.672913 73.946846,374.781311 73.974281,377.553986 
	C74.072830,387.512970 74.075157,397.474152 73.972839,407.433075 
	C73.944130,410.227295 74.994629,411.285767 77.764450,411.214813 
	C82.907166,411.083069 88.055222,411.160400 94.130814,411.049133 
M127.281418,247.489319 
	C127.281418,251.906937 127.281418,256.324554 127.281418,260.889648 
	C130.425446,260.889648 132.845337,260.889648 135.521423,260.889648 
	C135.521423,250.309799 135.521423,239.997513 135.521423,229.478790 
	C132.751205,229.478790 130.352631,229.478790 127.281746,229.478790 
	C127.281746,235.331451 127.281746,240.913101 127.281418,247.489319 
M134.192017,269.158234 
	C132.085831,269.158234 129.979630,269.158234 127.698425,269.158234 
	C127.698425,280.051514 127.698425,290.401123 127.698425,300.789062 
	C130.531998,300.789062 132.948059,300.789062 135.886642,300.789062 
	C135.886642,294.701416 135.993393,288.915039 135.852676,283.134644 
	C135.741211,278.554871 135.326324,273.982452 134.192017,269.158234 
M134.287949,221.166382 
	C134.765854,220.760284 135.657928,220.357361 135.661072,219.947601 
	C135.738541,209.884445 135.721680,199.820541 135.721680,188.117569 
	C132.199890,189.527054 127.734184,190.381607 127.671738,191.485291 
	C127.120697,201.225006 127.352081,211.008987 127.352081,221.252121 
	C129.763779,221.252121 131.566818,221.252121 134.287949,221.166382 
z"/>
<path fill="#3762CC" opacity="1.000000" stroke="none" 
	d="
M488.000000,287.000000 
	C488.000000,354.470764 487.873688,421.442017 488.149628,488.411652 
	C488.186798,497.432678 481.775696,502.112366 474.490692,502.054016 
	C454.833862,501.896576 435.171448,501.788269 415.518738,502.112915 
	C408.443665,502.229828 401.800262,496.410950 401.818817,488.314209 
	C402.084106,372.365448 401.999512,256.415894 402.001007,140.466537 
	C402.001129,131.979080 406.898651,127.019745 415.392883,127.008514 
	C435.217529,126.982307 455.042297,126.974724 474.866882,127.012260 
	C483.138489,127.027916 487.996765,131.907715 487.997559,140.064392 
	C488.002289,188.876266 487.999969,237.688126 488.000000,287.000000 
M410.001221,229.500000 
	C410.001251,314.790955 409.998901,400.081909 410.005859,485.372864 
	C410.006409,492.181030 410.780792,492.991608 417.346313,492.998779 
	C435.837128,493.018921 454.328003,493.020325 472.818787,492.997589 
	C478.997925,492.989990 479.986267,492.083130 479.987030,486.208313 
	C480.002258,371.765076 480.001953,257.321838 479.988068,142.878586 
	C479.987366,136.933014 479.019653,136.014252 472.904724,136.006104 
	C454.413940,135.981461 435.923065,135.985184 417.432251,136.003326 
	C410.779999,136.009857 410.009674,136.794128 410.006683,143.542130 
	C409.994049,171.861420 410.001251,200.180710 410.001221,229.500000 
z"/>
<path fill="#3964CD" opacity="1.000000" stroke="none" 
	d="
M374.996246,435.000000 
	C374.996185,452.829773 375.007263,470.159515 374.991241,487.489288 
	C374.983490,495.865631 368.768402,501.990997 360.305786,501.994171 
	C341.642975,502.001160 322.980133,502.001984 304.317322,501.994385 
	C293.415131,501.989929 288.007538,496.363342 288.006897,484.999176 
	C288.002075,398.350342 287.980865,311.701477 288.045929,225.052704 
	C288.051483,217.626846 288.160980,210.139099 289.107941,202.794312 
	C289.959900,196.186340 295.109528,192.106033 301.794861,192.058502 
	C321.956360,191.915176 342.120209,191.914673 362.281647,192.060898 
	C368.709229,192.107513 374.928925,198.913422 374.972931,205.547440 
	C375.052551,217.544434 374.996216,229.542343 374.996216,241.539871 
	C374.996307,305.859924 374.996246,370.179962 374.996246,435.000000 
M363.686859,492.588715 
	C364.565125,490.230560 366.208099,487.873505 366.211426,485.514160 
	C366.341309,393.201263 366.326996,300.888153 366.311157,208.575089 
	C366.310028,201.866501 365.153351,200.735275 358.402588,200.722702 
	C341.239746,200.690735 324.076843,200.708435 306.913940,200.711273 
	C297.416931,200.712830 296.918640,201.199188 296.918488,210.493774 
	C296.916931,301.473816 296.917450,392.453857 296.918274,483.433899 
	C296.918274,484.766876 296.923431,486.099945 296.937073,487.432861 
	C296.973938,491.035889 298.732147,493.174591 302.389465,493.167938 
	C322.543610,493.131226 342.697571,493.010254 363.686859,492.588715 
z"/>
<path fill="#F9A7A7" opacity="1.000000" stroke="none" 
	d="
M229.311661,200.275620 
	C249.344559,190.598389 269.060547,181.133545 288.789856,171.696640 
	C299.010681,166.807800 309.074890,161.527023 319.547272,157.249374 
	C327.611450,153.955383 332.671875,147.509079 338.566254,141.855942 
	C340.204254,140.284988 341.362579,138.222427 342.951721,136.590637 
	C357.910156,121.230858 372.937836,105.938576 387.896210,90.578766 
	C396.692963,81.545914 405.452118,72.475113 414.128021,63.326427 
	C419.018738,58.169182 423.706177,52.819241 428.738495,47.277142 
	C426.972321,45.816341 424.895721,44.352921 423.123352,42.584583 
	C418.111847,37.584450 418.666290,33.718239 425.123199,31.043667 
	C437.486115,25.922672 449.942596,21.016481 462.477448,16.334948 
	C464.134430,15.716107 467.358734,16.256210 468.290588,17.466112 
	C469.593170,19.157391 470.178467,22.137596 469.737946,24.294077 
	C468.512177,30.294640 466.632935,36.164501 464.947906,42.067738 
	C462.998688,48.896301 461.052643,55.727257 458.971405,62.516151 
	C457.263092,68.088470 454.124481,69.108383 449.296478,65.772026 
	C447.692139,64.663353 446.138947,63.457218 444.690369,62.153454 
	C443.332550,60.931339 442.143921,59.521233 440.383667,57.671432 
	C431.628723,66.923119 423.116760,76.103035 414.402069,85.086250 
	C399.242432,100.712997 383.929657,116.191086 368.737274,131.786240 
	C361.334961,139.384811 353.577148,146.710037 346.854797,154.878647 
	C339.335754,164.015320 329.838409,169.491364 319.229980,174.121689 
	C305.283325,180.209000 291.808014,187.370758 278.083221,193.973175 
	C260.577423,202.394455 243.043106,210.757156 225.468933,219.034393 
	C223.332397,220.040695 220.901199,220.505234 218.556488,220.966125 
	C215.009430,221.663361 211.982788,220.268005 211.170197,216.848145 
	C210.276505,213.086945 210.867432,209.094040 214.920288,207.036133 
	C219.531143,204.694901 224.300049,202.664902 229.311661,200.275620 
z"/>
<path fill="#3864CC" opacity="1.000000" stroke="none" 
	d="
M175.001663,443.000000 
	C175.001740,379.879486 175.094940,317.258667 174.896027,254.638809 
	C174.867950,245.799927 179.963928,240.936157 188.472763,240.974670 
	C207.958008,241.062836 227.448166,241.243240 246.927719,240.898956 
	C256.383759,240.731842 261.960205,245.917252 261.982605,256.139435 
	C262.032928,279.122406 261.998688,302.105530 261.998718,325.088593 
	C261.998749,378.882263 262.000427,432.675964 261.997192,486.469635 
	C261.996521,497.434784 257.419617,501.997345 246.447433,501.997742 
	C227.294876,501.998474 208.141800,501.913544 188.990021,502.035339 
	C180.096695,502.091888 174.623001,497.706635 174.894012,487.964142 
	C175.305984,473.153198 175.001709,458.322388 175.001663,443.000000 
M183.234482,362.500000 
	C183.234634,403.494263 183.225159,444.488525 183.244125,485.482788 
	C183.247421,492.584961 183.885178,493.187134 190.917572,493.190887 
	C209.581619,493.200836 228.246460,493.101807 246.909149,493.260834 
	C251.347855,493.298615 253.126999,491.932190 253.120895,487.257843 
	C253.019913,410.102112 253.020081,332.946167 253.120636,255.790436 
	C253.126694,251.136887 251.397949,249.733643 246.932266,249.774277 
	C228.603027,249.941132 210.271362,249.841293 191.940598,249.844177 
	C183.507980,249.845505 183.239304,250.099564 183.237473,258.514404 
	C183.229996,292.842926 183.234818,327.171478 183.234482,362.500000 
z"/>
<path fill="#2B55D5" opacity="1.000000" stroke="none" 
	d="
M64.930786,420.499451 
	C65.206642,420.599060 65.814285,421.164581 65.810677,421.726196 
	C65.723671,435.266754 65.571327,448.806885 65.155327,462.657593 
	C64.912491,448.966553 64.945145,434.965088 64.930786,420.499451 
z"/>
<path fill="#A3C8FF" opacity="1.000000" stroke="none" 
	d="
M74.000038,338.180725 
	C67.166779,338.177521 60.832348,338.102264 54.500778,338.204315 
	C51.772224,338.248291 50.426121,337.263947 50.636600,334.438690 
	C50.710663,333.444519 50.638042,332.439667 50.638035,331.439697 
	C50.637524,273.940125 50.636356,216.440536 50.639240,158.940964 
	C50.639599,151.782700 50.649693,151.774414 57.680534,151.772781 
	C76.347069,151.768463 95.015091,151.898972 113.679039,151.679428 
	C118.117378,151.627228 119.554955,153.019836 119.325867,157.394348 
	C119.003815,163.544098 119.038055,169.732727 119.318199,175.886597 
	C119.502213,179.928955 118.317497,181.603287 114.034752,181.362289 
	C108.386215,181.044403 102.705452,181.245499 97.039566,181.311325 
	C94.053642,181.346008 90.970871,181.810623 91.115982,185.709930 
	C91.248795,189.278717 94.232613,189.598923 97.000237,189.628021 
	C102.832909,189.689346 108.669952,189.774124 114.498566,189.611343 
	C117.757057,189.520370 119.405830,190.344223 119.304420,194.034470 
	C119.093903,201.695297 119.115479,209.368912 119.297775,217.031174 
	C119.378662,220.431107 117.939346,221.307434 114.830414,221.224792 
	C108.834846,221.065430 102.831543,221.154160 96.832008,221.205521 
	C93.994347,221.229828 91.173607,221.792343 91.116051,225.326096 
	C91.054642,229.095932 94.025108,229.194717 96.816055,229.194778 
	C102.816010,229.194916 108.818756,229.308060 114.814758,229.155197 
	C117.896721,229.076614 119.382759,229.896744 119.301514,233.333160 
	C119.112473,241.328659 119.169426,249.332550 119.276665,257.331024 
	C119.314034,260.117737 118.279701,261.187256 115.478188,261.124969 
	C109.647850,260.995361 103.812508,261.084503 97.979248,261.095764 
	C94.938179,261.101654 91.326569,260.864868 91.182640,265.035522 
	C91.032661,269.381622 94.681953,269.098389 97.718353,269.104370 
	C103.551620,269.115845 109.388145,269.226410 115.216896,269.064575 
	C118.250320,268.980347 119.337944,270.099548 119.286575,273.121887 
	C119.150665,281.119507 119.141098,289.122772 119.289970,297.119965 
	C119.347633,300.217255 118.142326,301.179016 115.168007,301.103271 
	C109.005455,300.946381 102.835938,301.078613 96.669418,301.055237 
	C93.718094,301.044037 90.738274,301.791656 91.325562,305.199646 
	C91.591087,306.740479 94.637344,308.779175 96.522820,308.890869 
	C103.794411,309.321625 111.106674,309.065674 119.163002,309.065674 
	C119.163002,318.352783 119.288231,327.112396 118.959732,335.854980 
	C118.928581,336.684204 116.062347,338.055603 114.497604,338.076599 
	C101.167015,338.255402 87.833008,338.179840 74.000038,338.180725 
z"/>
<path fill="#DCE8FB" opacity="1.000000" stroke="none" 
	d="
M42.364101,315.000061 
	C42.364738,331.165741 42.332108,346.831451 42.378826,362.496979 
	C42.404163,370.992249 44.970631,373.519501 53.439999,373.598022 
	C57.412144,373.634857 61.384911,373.604309 65.670670,373.604309 
	C65.670670,386.305786 65.670670,398.530396 65.670670,411.240784 
	C56.302532,411.240784 47.175812,411.396759 38.066296,411.071289 
	C36.712139,411.022888 35.202805,408.862396 34.221619,407.377502 
	C33.678268,406.555206 34.060623,405.107605 34.060581,403.941864 
	C34.057583,319.947357 34.009541,235.952713 34.213440,151.958694 
	C34.222832,148.090973 35.556496,143.417313 37.988853,140.600174 
	C40.261948,137.967484 44.799534,136.041153 48.375496,135.983643 
	C72.700890,135.592407 97.035812,135.715714 121.367088,135.813492 
	C129.017380,135.844223 134.876816,140.149841 135.331635,147.380997 
	C136.028015,158.452850 135.514435,169.600815 135.514435,181.051941 
	C132.871735,181.051941 130.466537,181.051941 127.334320,181.051941 
	C127.334320,174.253494 127.336342,167.640915 127.333229,161.028320 
	C127.332130,158.695190 127.401138,156.358292 127.294792,154.029648 
	C126.994064,147.444611 123.525551,143.793228 116.924377,143.757080 
	C95.593140,143.640274 74.260521,143.644119 52.929218,143.754227 
	C46.594456,143.786911 43.089195,147.256195 42.484154,153.516037 
	C42.292435,155.499542 42.367939,157.511551 42.367744,159.510513 
	C42.362709,211.173691 42.363838,262.836884 42.364101,315.000061 
z"/>
<path fill="#4671C6" opacity="1.000000" stroke="none" 
	d="
M34.046398,476.524139 
	C35.846867,474.722229 37.611877,472.195496 39.396832,472.181335 
	C69.852921,471.939606 100.311478,472.008575 130.769485,472.010376 
	C134.253540,472.010559 135.992264,473.762207 135.981461,477.241913 
	C135.927094,494.766541 137.844025,492.994507 121.312218,493.000854 
	C94.682213,493.011078 68.052200,493.012268 41.422203,492.996460 
	C34.785866,492.992523 34.035385,492.198914 34.006191,485.456726 
	C33.993942,482.627411 34.014549,479.797943 34.046398,476.524139 
z"/>
<path fill="#DBE7FB" opacity="1.000000" stroke="none" 
	d="
M135.768921,407.385406 
	C134.285553,408.978058 132.886841,411.066071 131.417755,411.116791 
	C122.477829,411.425629 113.521896,411.270874 104.253708,411.270874 
	C104.253708,398.578369 104.253708,386.344208 104.253708,373.474457 
	C108.630569,373.474457 112.918579,373.514008 117.205597,373.465759 
	C124.821182,373.380035 127.289078,370.914429 127.311073,363.188019 
	C127.356567,347.208801 127.326347,331.229401 127.327240,315.250061 
	C127.327339,313.446594 127.327255,311.643127 127.327255,309.456787 
	C130.153931,309.456787 132.551987,309.456787 135.821075,309.456787 
	C135.821075,341.879974 135.821075,374.409576 135.768921,407.385406 
z"/>
<path fill="#4570C6" opacity="1.000000" stroke="none" 
	d="
M89.000000,346.004883 
	C97.665649,346.005280 105.833855,346.125122 113.995758,345.950470 
	C117.523682,345.875000 119.019737,346.850433 119.085831,350.702911 
	C119.331291,365.009491 119.456169,364.879852 105.101204,365.041382 
	C89.132980,365.221069 73.163704,365.541901 57.203568,366.065765 
	C52.350727,366.225006 50.858154,364.450287 50.902100,359.699799 
	C51.028767,346.006409 50.862465,346.004852 64.502968,346.004852 
	C72.501976,346.004852 80.500992,346.004883 89.000000,346.004883 
z"/>
<path fill="#DDE9FB" opacity="1.000000" stroke="none" 
	d="
M95.948730,127.762772 
	C85.187798,127.762688 74.917671,127.762688 64.047356,127.762688 
	C64.047356,119.028870 63.939762,110.775856 64.196693,102.534210 
	C64.225655,101.605034 66.300034,99.981476 67.447212,99.962433 
	C79.080299,99.769310 90.720192,99.737305 102.350525,99.999641 
	C103.559517,100.026909 105.692436,102.205742 105.742821,103.453079 
	C106.057449,111.243462 105.901604,119.052841 105.901604,127.762863 
	C102.574287,127.762863 99.506912,127.762863 95.948730,127.762772 
z"/>
<path fill="#6ADADD" opacity="1.000000" stroke="none" 
	d="
M95.949356,458.708496 
	C96.395782,462.676880 94.779243,463.939240 91.363571,463.800110 
	C87.043129,463.624115 82.699333,463.571594 78.385681,463.817688 
	C74.761803,464.024445 73.892029,462.483978 73.937164,459.127319 
	C74.096046,447.311646 74.113136,435.490753 73.929695,423.675781 
	C73.874687,420.133331 75.094810,418.963409 78.537582,419.143829 
	C82.853386,419.369995 87.200607,419.385223 91.514404,419.140900 
	C95.094627,418.938110 96.061188,420.386841 96.012459,423.789001 
	C95.847984,435.271576 95.950104,446.757935 95.949356,458.708496 
z"/>
<path fill="#6BDCDD" opacity="1.000000" stroke="none" 
	d="
M93.665939,411.099915 
	C88.055222,411.160400 82.907166,411.083069 77.764450,411.214813 
	C74.994629,411.285767 73.944130,410.227295 73.972839,407.433075 
	C74.075157,397.474152 74.072830,387.512970 73.974281,377.553986 
	C73.946846,374.781311 74.965714,373.672913 77.751053,373.745056 
	C82.561806,373.869720 87.378708,373.825134 92.191833,373.761505 
	C94.531021,373.730591 95.971588,374.332458 95.952927,377.073242 
	C95.882851,387.364685 95.975815,397.657471 95.846046,407.947754 
	C95.832916,408.988556 94.728691,410.015656 93.665939,411.099915 
z"/>
<path fill="#D2E0F8" opacity="1.000000" stroke="none" 
	d="
M127.281586,246.992035 
	C127.281746,240.913101 127.281746,235.331451 127.281746,229.478790 
	C130.352631,229.478790 132.751205,229.478790 135.521423,229.478790 
	C135.521423,239.997513 135.521423,250.309799 135.521423,260.889648 
	C132.845337,260.889648 130.425446,260.889648 127.281418,260.889648 
	C127.281418,256.324554 127.281418,251.906937 127.281586,246.992035 
z"/>
<path fill="#D3E0F8" opacity="1.000000" stroke="none" 
	d="
M134.619095,269.282501 
	C135.326324,273.982452 135.741211,278.554871 135.852676,283.134644 
	C135.993393,288.915039 135.886642,294.701416 135.886642,300.789062 
	C132.948059,300.789062 130.531998,300.789062 127.698425,300.789062 
	C127.698425,290.401123 127.698425,280.051514 127.698425,269.158234 
	C129.979630,269.158234 132.085831,269.158234 134.619095,269.282501 
z"/>
<path fill="#D2E0F8" opacity="1.000000" stroke="none" 
	d="
M133.828903,221.209259 
	C131.566818,221.252121 129.763779,221.252121 127.352081,221.252121 
	C127.352081,211.008987 127.120697,201.225006 127.671738,191.485291 
	C127.734184,190.381607 132.199890,189.527054 135.721680,188.117569 
	C135.721680,199.820541 135.738541,209.884445 135.661072,219.947601 
	C135.657928,220.357361 134.765854,220.760284 133.828903,221.209259 
z"/>
<path fill="#4671C6" opacity="1.000000" stroke="none" 
	d="
M410.001221,229.000000 
	C410.001251,200.180710 409.994049,171.861420 410.006683,143.542130 
	C410.009674,136.794128 410.779999,136.009857 417.432251,136.003326 
	C435.923065,135.985184 454.413940,135.981461 472.904724,136.006104 
	C479.019653,136.014252 479.987366,136.933014 479.988068,142.878586 
	C480.001953,257.321838 480.002258,371.765076 479.987030,486.208313 
	C479.986267,492.083130 478.997925,492.989990 472.818787,492.997589 
	C454.328003,493.020325 435.837128,493.018921 417.346313,492.998779 
	C410.780792,492.991608 410.006409,492.181030 410.005859,485.372864 
	C409.998901,400.081909 410.001251,314.790955 410.001221,229.000000 
z"/>
<path fill="#A3C8FF" opacity="1.000000" stroke="none" 
	d="
M363.269226,492.753418 
	C342.697571,493.010254 322.543610,493.131226 302.389465,493.167938 
	C298.732147,493.174591 296.973938,491.035889 296.937073,487.432861 
	C296.923431,486.099945 296.918274,484.766876 296.918274,483.433899 
	C296.917450,392.453857 296.916931,301.473816 296.918488,210.493774 
	C296.918640,201.199188 297.416931,200.712830 306.913940,200.711273 
	C324.076843,200.708435 341.239746,200.690735 358.402588,200.722702 
	C365.153351,200.735275 366.310028,201.866501 366.311157,208.575089 
	C366.326996,300.888153 366.341309,393.201263 366.211426,485.514160 
	C366.208099,487.873505 364.565125,490.230560 363.269226,492.753418 
z"/>
<path fill="#6BDCDD" opacity="1.000000" stroke="none" 
	d="
M183.234802,362.000000 
	C183.234818,327.171478 183.229996,292.842926 183.237473,258.514404 
	C183.239304,250.099564 183.507980,249.845505 191.940598,249.844177 
	C210.271362,249.841293 228.603027,249.941132 246.932266,249.774277 
	C251.397949,249.733643 253.126694,251.136887 253.120636,255.790436 
	C253.020081,332.946167 253.019913,410.102112 253.120895,487.257843 
	C253.126999,491.932190 251.347855,493.298615 246.909149,493.260834 
	C228.246460,493.101807 209.581619,493.200836 190.917572,493.190887 
	C183.885178,493.187134 183.247421,492.584961 183.244125,485.482788 
	C183.225159,444.488525 183.234634,403.494263 183.234802,362.000000 
z"/>
</svg>