<svg version="1.1" id="Layer_1" xmlns="http://www.w3.org/2000/svg" xmlns:xlink="http://www.w3.org/1999/xlink" x="0px" y="0px"
	 width="100%" viewBox="0 0 512 512" enable-background="new 0 0 512 512" xml:space="preserve">
<path fill="#000000" opacity="1.000000" stroke="none" 
	d="
M286.000000,513.000000 
	C192.022812,513.000000 98.545601,512.979492 5.068528,513.085144 
	C1.795423,513.088867 0.894715,512.634766 0.897218,509.070312 
	C1.015182,341.111359 1.016859,173.152328 0.891708,5.193420 
	C0.888907,1.434828 1.850453,0.913581 5.304635,0.915568 
	C173.096985,1.012110 340.889374,1.011540 508.681732,0.918693 
	C512.098999,0.916803 513.113953,1.383421 513.111023,5.179763 
	C512.982544,173.138687 512.985168,341.097717 513.101257,509.056671 
	C513.103699,512.593262 512.247681,513.092896 508.945099,513.087830 
	C434.796844,512.973389 360.648407,513.000000 286.000000,513.000000 
z"/>
<path fill="#2F4069" opacity="1.000000" stroke="none" 
	d="
M406.080261,421.833954 
	C406.038971,431.215027 405.960297,440.206604 406.006836,449.197510 
	C406.109039,468.929749 390.823456,484.211517 371.400116,484.132629 
	C290.475922,483.804108 209.549072,483.836548 128.624603,484.126190 
	C112.191498,484.184998 94.691681,468.889832 95.913414,451.384277 
	C96.456947,443.596283 95.999985,435.738464 95.988091,427.441956 
	C95.259216,425.844543 94.570229,424.699890 94.484917,423.318665 
	C93.038246,399.895294 95.418694,377.392883 109.933784,357.704559 
	C121.587578,341.897308 136.664673,330.968536 155.550720,325.475067 
	C158.789734,324.532928 161.282440,323.132355 162.728851,319.942505 
	C168.062500,308.179871 176.884293,299.979645 188.672241,294.868744 
	C189.433716,294.538574 190.198074,294.206665 190.896072,293.744568 
	C191.184647,293.553528 191.395020,293.311493 191.683685,292.374054 
	C186.915527,288.464752 182.151245,284.164825 177.978043,279.214233 
	C166.660782,265.788788 159.190002,250.578217 156.372818,233.256546 
	C155.544815,228.165329 153.444687,225.207382 148.666611,222.854752 
	C138.310272,217.755508 131.621155,209.219849 128.903290,197.852249 
	C128.331467,195.460556 127.594147,192.999329 128.767456,190.197845 
	C129.003036,176.234558 128.721741,162.562881 129.063324,148.906784 
	C129.820770,118.625137 140.224564,92.213478 160.729813,69.638573 
	C177.020355,51.703754 196.795761,39.740768 219.996811,33.613609 
	C236.963821,29.132797 254.230667,28.811119 271.670319,31.677954 
	C290.732239,34.811478 307.821625,42.232704 323.201538,53.642143 
	C348.215424,72.198441 363.546753,97.023384 369.960419,127.412834 
	C370.843292,131.596237 371.325806,135.864151 371.999146,140.511765 
	C373.878204,142.785736 373.666901,145.189285 373.671570,147.502563 
	C373.699493,161.322586 373.988678,175.150848 373.599945,188.960495 
	C373.167786,204.313004 366.395325,216.209732 352.322479,223.059341 
	C347.770142,225.275085 345.875549,228.107834 345.036316,233.096039 
	C341.220306,255.778198 330.187683,274.553772 312.967651,289.748474 
	C309.287354,292.995941 309.323730,293.049927 313.722198,295.139252 
	C324.476288,300.247559 332.599915,308.146881 338.065918,318.655457 
	C340.062927,322.494690 342.846130,324.539093 346.944702,325.889893 
	C380.803680,337.049438 400.712433,360.352173 406.172729,395.568756 
	C407.491425,404.073639 407.206329,412.820496 406.080261,421.833954 
z"/>
<path fill="#B6F0FA" opacity="1.000000" stroke="none" 
	d="
M406.356567,422.052307 
	C404.069733,417.276306 405.229950,412.112366 405.231964,407.076447 
	C405.237457,393.325531 402.431549,380.306976 395.913055,368.195618 
	C384.529907,347.045807 367.316040,333.067108 344.046326,326.821136 
	C340.764130,325.940155 338.814117,324.508942 337.357849,321.216339 
	C331.927917,308.939087 322.639435,300.470459 310.197235,295.457306 
	C308.819824,294.902344 307.427399,294.384735 305.438080,293.616608 
	C310.152008,289.804138 314.522369,286.280609 318.392853,282.208984 
	C332.841583,267.009399 341.574066,249.084137 344.000427,228.221710 
	C344.318878,225.483536 345.385773,224.284332 347.872925,223.304382 
	C363.434387,217.173004 371.956879,204.538483 371.940765,187.782196 
	C371.926056,172.468002 371.792603,157.153900 371.858032,141.385193 
	C393.936554,138.206970 414.769745,141.963486 434.043213,152.647446 
	C452.669495,162.972641 465.333282,178.828262 472.824982,198.615189 
	C479.846039,217.159042 481.424255,236.672714 479.813629,256.176910 
	C477.813568,280.396759 470.995758,303.579742 462.409882,326.331879 
	C452.715607,352.021240 441.552277,376.913940 425.761292,399.460266 
	C420.137360,407.490112 413.940216,415.191101 406.356567,422.052307 
z"/>
<path fill="#B6F0FA" opacity="1.000000" stroke="none" 
	d="
M128.592560,189.944809 
	C130.159561,198.054672 132.172668,205.855179 137.761505,212.300751 
	C141.870605,217.039764 146.612885,220.997559 152.582901,222.929779 
	C156.010178,224.039047 156.873001,225.878922 157.357666,229.236496 
	C161.068161,254.940750 173.193527,275.857147 193.747086,291.822021 
	C194.391754,292.322754 195.003464,292.865906 195.919037,293.630096 
	C194.097183,294.351746 192.596375,294.943176 191.097809,295.540253 
	C178.267624,300.652710 169.012543,309.529572 163.459930,322.149963 
	C162.435120,324.479218 161.256989,325.688507 158.650070,326.385742 
	C120.173233,336.676666 96.093224,368.187225 96.038460,408.062897 
	C96.030228,414.054718 96.030647,420.046539 96.003059,426.504974 
	C91.839569,425.513794 89.070496,422.080597 86.026497,419.328156 
	C68.666832,403.631134 54.101303,385.729706 44.569511,364.105957 
	C39.210197,351.947845 35.647614,339.319611 33.914230,326.111328 
	C33.017921,319.281555 31.908428,312.403137 32.136307,305.596191 
	C32.933270,281.790253 38.156437,259.155426 51.966316,239.176361 
	C61.270622,225.715561 73.349442,215.366653 87.300095,206.879211 
	C99.249863,199.609131 112.162842,194.805771 125.272858,190.340454 
	C126.177795,190.032242 127.210243,190.098404 128.592560,189.944809 
z"/>
<path fill="#02BEFF" opacity="1.000000" stroke="none" 
	d="
M110.378738,146.098633 
	C105.299171,150.935562 100.296165,151.402924 96.171967,147.670609 
	C92.213348,144.088135 91.740646,138.411407 95.071289,134.452072 
	C98.350662,130.553696 102.288826,130.003555 107.306213,132.742920 
	C111.012924,134.766693 112.542168,139.039902 111.164963,143.416794 
	C110.920135,144.194901 110.831207,145.022095 110.378738,146.098633 
z"/>
<path fill="#06D506" opacity="1.000000" stroke="none" 
	d="
M401.820190,90.659607 
	C402.005646,100.592575 395.915222,105.291954 388.357788,101.793060 
	C384.033081,99.790817 382.846771,96.400642 383.041260,92.202248 
	C383.222260,88.295578 385.761932,85.774849 389.123932,84.528595 
	C392.922577,83.120483 396.658752,83.734093 399.494324,87.025085 
	C400.343353,88.010452 400.973358,89.184525 401.820190,90.659607 
z"/>
<path fill="#FF5892" opacity="1.000000" stroke="none" 
	d="
M474.504486,408.982880 
	C464.729218,410.679382 461.209076,401.594452 463.649750,395.728699 
	C465.409332,391.499908 469.043945,390.121368 472.586761,390.247711 
	C476.995361,390.404907 480.531982,393.231720 481.405792,397.977448 
	C482.123840,401.877106 480.689575,405.245728 477.560181,407.741394 
	C476.822266,408.329865 475.806183,408.569489 474.504486,408.982880 
z"/>
<path fill="#B5EFF9" opacity="1.000000" stroke="none" 
	d="
M111.259125,438.408478 
	C110.770378,437.689972 110.234489,437.286102 110.240128,436.889954 
	C110.480690,419.972870 107.841461,402.828064 113.065651,386.267639 
	C120.042488,364.151489 134.760422,349.294067 156.632324,341.553070 
	C157.232224,341.340729 157.881638,341.268250 159.039520,341.013702 
	C159.039520,353.577789 159.021637,365.843445 159.053741,378.108978 
	C159.060623,380.743011 156.776962,380.631561 155.285553,381.379120 
	C144.442566,386.813812 138.969086,398.245239 141.801041,409.691223 
	C144.656570,421.232483 154.910233,429.176239 166.626663,428.924316 
	C178.261414,428.674103 188.266144,420.232178 190.678619,408.629425 
	C192.950104,397.704712 187.300293,386.320374 176.693390,381.456818 
	C173.747925,380.106232 172.906235,378.618774 172.958878,375.545288 
	C173.147217,364.551849 173.132828,353.551941 172.980194,342.557434 
	C172.932648,339.131256 174.037231,337.848846 177.552094,337.932800 
	C185.544739,338.123688 193.548019,338.087311 201.541534,337.904785 
	C204.330505,337.841064 206.049377,338.740173 207.703064,341.013367 
	C219.360977,357.038788 231.169739,372.954498 242.928131,388.906830 
	C248.591217,396.589783 252.743637,396.654694 258.342896,389.069366 
	C270.013702,373.258972 281.723358,357.476288 293.243225,341.556427 
	C295.236603,338.801727 297.353271,337.792389 300.685120,337.893372 
	C308.509155,338.130554 316.347198,338.111206 324.174133,337.942505 
	C327.247925,337.876282 328.447571,338.970001 328.199554,341.959381 
	C328.089783,343.282623 328.057037,344.640594 328.221497,345.953705 
	C329.469482,355.919434 328.198547,362.559052 316.196594,366.691406 
	C301.859650,371.627777 294.386414,384.588867 292.776398,400.050995 
	C292.051147,407.016418 291.974457,414.024323 292.793579,420.995270 
	C293.512482,427.113434 296.597473,431.953552 301.491943,435.584991 
	C306.106750,439.009033 311.742889,440.547180 316.430511,444.144989 
	C320.033722,446.910553 324.861786,445.509827 328.140167,441.879333 
	C331.375000,438.297119 331.943115,434.133209 329.563141,429.871948 
	C327.178009,425.601562 323.334290,424.031006 318.573029,424.795929 
	C309.042755,426.327057 306.299561,424.042725 306.335968,414.257446 
	C306.353302,409.600922 306.263763,404.899475 306.848297,400.297852 
	C308.717499,385.583405 321.917542,374.530365 336.361725,375.274200 
	C351.565277,376.057129 363.501282,387.794281 364.147003,402.766113 
	C364.362122,407.755096 364.391968,412.768616 364.167908,417.755707 
	C363.892883,423.876343 359.464935,426.901703 353.593781,425.293091 
	C347.564850,423.641235 342.755280,425.413147 340.323944,430.181824 
	C338.025391,434.689972 339.274506,440.057922 343.343018,443.156311 
	C347.685425,446.463287 353.096649,445.903473 357.640350,441.372589 
	C358.935028,440.081482 360.378998,439.611938 361.953400,439.123291 
	C372.084625,435.978912 378.026367,428.283752 378.168488,417.689819 
	C378.262238,410.702728 379.011230,403.610901 377.580811,396.743042 
	C373.971283,379.412231 363.522217,368.024841 346.481201,363.082428 
	C343.193207,362.128815 341.752838,361.002380 342.086243,357.431641 
	C342.440918,353.632599 342.477051,349.742706 342.086578,345.950775 
	C341.607697,341.300415 343.089569,340.615051 347.177551,342.267059 
	C365.195587,349.548157 378.256439,361.909058 385.951324,379.777283 
	C389.204773,387.332062 391.060181,395.264282 391.085999,403.537231 
	C391.118744,414.032043 391.062775,424.527100 391.009338,435.486755 
	C389.952759,438.303406 388.276276,440.000244 386.178070,441.507080 
	C372.601440,451.257141 358.151306,459.376526 342.585083,465.517792 
	C338.684723,467.056641 334.762238,468.282715 330.261658,468.767517 
	C282.409088,471.015839 234.841568,469.340729 187.287399,469.831665 
	C184.830307,469.857056 182.367065,469.288086 179.476929,468.984833 
	C156.025726,464.829498 135.641266,454.307251 115.677856,442.768677 
	C113.946922,441.768280 112.247612,440.721466 111.259125,438.408478 
z"/>
<path fill="#B5EFF9" opacity="1.000000" stroke="none" 
	d="
M329.606384,150.672302 
	C331.575531,152.138733 330.939972,153.945496 330.943298,155.514145 
	C330.987305,176.167175 331.092682,196.821243 330.941589,217.473282 
	C330.635651,259.292175 297.792633,294.143738 256.274170,296.882721 
	C214.427353,299.643341 177.137817,269.964478 171.326935,228.626678 
	C169.148987,213.133026 170.013351,197.422607 170.890686,181.403320 
	C174.893158,178.323761 179.216873,178.140106 184.066162,178.908051 
	C186.838928,180.724854 186.050446,183.155350 186.049362,185.430817 
	C186.044983,194.569901 190.132645,201.433212 198.091980,205.740616 
	C205.895935,209.963943 213.639923,208.956100 220.584198,203.789383 
	C227.374863,198.736954 230.165680,191.707977 228.977249,183.216843 
	C228.637634,180.790451 227.487686,178.398331 228.854675,175.576599 
	C230.431259,174.136063 232.023911,173.627151 233.689728,173.466019 
	C247.437393,172.136185 261.058685,170.003983 274.568390,167.140915 
	C275.219635,167.002899 275.892700,167.047562 276.947083,167.201920 
	C280.208984,169.882599 277.603180,171.751968 276.367462,173.625610 
	C272.525482,179.450943 270.665619,185.523438 272.840271,192.502991 
	C275.710480,201.715118 284.896515,208.609009 294.172760,208.279007 
	C304.146271,207.924194 312.745392,200.807663 314.905212,191.121124 
	C317.007965,181.690475 311.922882,171.441788 302.969818,167.013290 
	C301.072754,166.074936 298.758972,165.773697 297.569733,163.243561 
	C297.790070,161.354507 298.945343,160.646790 300.183228,160.155914 
	C308.969879,156.671616 317.839783,153.411423 326.819214,150.455551 
	C327.613647,150.194046 328.452484,150.205902 329.606384,150.672302 
z"/>
<path fill="#000000" opacity="1.000000" stroke="none" 
	d="
M345.328796,146.193817 
	C342.793793,138.108765 339.932526,130.726608 334.336670,124.454353 
	C327.203308,116.458755 318.671204,110.892769 308.069458,110.134224 
	C272.009308,107.554131 235.862778,108.800217 199.779160,109.294754 
	C175.736176,109.624268 157.892441,126.991104 156.092773,151.014801 
	C155.851990,154.228943 153.648621,154.718735 151.692856,155.591003 
	C144.024384,159.011185 143.928726,158.942917 144.006332,150.593506 
	C144.237717,125.696938 152.427841,103.738792 168.059158,84.359200 
	C184.682526,63.749660 206.130630,50.848343 231.896088,46.381180 
	C261.914795,41.176598 289.892975,47.561157 314.508850,66.088669 
	C336.857605,82.909836 350.283203,105.428993 355.796478,132.743713 
	C356.415314,135.809494 356.603180,138.962280 356.975464,142.497925 
	C353.936768,146.485291 349.869690,146.708557 345.328796,146.193817 
z"/>
<path fill="#000000" opacity="1.000000" stroke="none" 
	d="
M329.964294,150.484238 
	C319.363831,154.681076 308.782684,158.482208 297.979736,162.601746 
	C297.348114,163.443054 296.868988,164.062073 296.233063,164.082916 
	C290.109619,164.283447 284.494598,166.524918 278.398315,168.180603 
	C266.570648,170.751984 255.010315,172.749496 243.308701,174.212738 
	C238.853821,174.769791 234.161484,174.121094 229.444351,175.997406 
	C227.171890,175.739563 226.203888,174.305862 225.253403,172.992386 
	C216.719177,161.199020 195.665588,160.781250 187.630630,176.885406 
	C187.113586,177.921707 186.574234,178.950928 185.312897,179.856400 
	C180.541138,179.272064 176.325760,181.525757 171.458084,181.002869 
	C171.008331,172.354233 171.109177,163.699341 170.972458,155.048203 
	C170.677444,136.379425 185.073196,124.144608 201.944153,124.048401 
	C234.392731,123.863373 266.843750,123.873924 299.292480,124.045578 
	C315.443115,124.130997 328.151855,134.920090 329.964294,150.484238 
z"/>
<path fill="#B5EFF9" opacity="1.000000" stroke="none" 
	d="
M285.271820,324.719940 
	C285.485382,327.596741 284.844727,329.628235 283.335876,331.651459 
	C273.278656,345.136932 263.263153,358.655731 253.439758,372.311646 
	C251.203613,375.420197 250.132141,375.330048 247.943390,372.292999 
	C238.108170,358.646057 228.055923,345.155579 218.089828,331.602875 
	C217.116196,330.278839 215.985321,329.077942 216.000092,327.207733 
	C216.057861,319.894409 216.023682,312.580353 216.023682,304.798981 
	C223.106918,306.941376 229.771866,308.936737 236.663544,310.010864 
	C251.784515,312.367584 266.574371,310.884491 280.985535,305.969116 
	C284.777618,304.675720 285.518036,305.623199 285.334656,309.262482 
	C285.083344,314.249115 285.271912,319.257904 285.271820,324.719940 
z"/>
<path fill="#000000" opacity="1.000000" stroke="none" 
	d="
M111.027611,438.551941 
	C132.177460,451.373749 154.593475,461.757507 178.894363,468.614136 
	C162.099213,468.984039 145.151154,469.038086 128.203400,468.986877 
	C119.075081,468.959320 111.151817,461.065796 111.005356,451.973511 
	C110.935791,447.654694 110.998665,443.333679 111.027611,438.551941 
z"/>
<path fill="#000000" opacity="1.000000" stroke="none" 
	d="
M330.424469,468.985229 
	C339.291870,464.987885 348.863525,461.463562 357.910553,456.899414 
	C369.377106,451.114685 380.477112,444.577637 390.644958,436.057617 
	C390.984161,440.266754 390.980072,444.582123 391.007996,448.897308 
	C391.077423,459.620880 382.354950,469.774689 370.721741,469.164429 
	C357.479919,468.469757 344.173828,468.999146 330.424469,468.985229 
z"/>
<path fill="#03BBFC" opacity="1.000000" stroke="none" 
	d="
M166.814087,392.946838 
	C173.993896,394.579254 177.412125,398.672821 177.030701,404.714081 
	C176.709290,409.804932 172.726288,414.073669 167.573929,414.849304 
	C162.446304,415.621155 157.307068,412.320190 155.573578,407.141388 
	C153.213455,400.090485 158.104172,393.673248 166.814087,392.946838 
z"/>
<path fill="#03BCFC" opacity="1.000000" stroke="none" 
	d="
M347.050171,208.403839 
	C344.181244,209.128967 345.001801,207.123245 344.995636,206.093201 
	C344.929871,195.100891 344.944550,184.108002 344.970825,173.115356 
	C344.973053,172.178101 344.560791,170.947617 345.550873,170.386078 
	C346.804108,169.675293 347.718536,170.864304 348.621552,171.479416 
	C361.550385,180.286163 360.925568,198.530869 347.050171,208.403839 
z"/>
<path fill="#03BCFC" opacity="1.000000" stroke="none" 
	d="
M146.783890,201.063507 
	C140.870514,189.521301 143.610703,177.032562 152.995682,171.197708 
	C155.052567,169.918900 156.298325,169.600342 156.290634,172.694168 
	C156.263824,183.481369 156.292465,194.268692 156.277878,205.055939 
	C156.276321,206.200485 156.128937,207.344818 156.027924,208.794769 
	C151.689362,207.660568 149.271408,204.597656 146.783890,201.063507 
z"/>
<path fill="#B1EAF5" opacity="1.000000" stroke="none" 
	d="
M314.854706,324.012909 
	C310.901154,324.012909 307.389709,323.710297 303.953796,324.090393 
	C299.775146,324.552734 298.720001,322.751892 299.175720,319.041412 
	C299.376099,317.409851 299.209290,315.733215 299.209381,314.077026 
	C299.209869,305.783112 299.555023,305.528717 307.280579,309.231079 
	C313.804810,312.357788 319.135925,316.846100 323.134369,324.012909 
	C320.123993,324.012909 317.727142,324.012909 314.854706,324.012909 
z"/>
<path fill="#B5EEF9" opacity="1.000000" stroke="none" 
	d="
M184.348526,324.000580 
	C182.268509,324.000580 180.636688,324.000580 178.232040,324.000580 
	C183.391479,315.091705 190.560364,309.990112 199.602249,307.238190 
	C201.251358,306.736298 202.079895,307.209778 202.049408,309.089813 
	C201.981903,313.253296 201.932343,317.421539 202.061554,321.582062 
	C202.142776,324.197083 200.503235,324.011536 198.789673,324.005127 
	C194.125412,323.987701 189.461044,324.000031 184.348526,324.000580 
z"/>
<path fill="#B2EBF6" opacity="1.000000" stroke="none" 
	d="
M344.844818,146.362259 
	C348.723053,144.954849 352.441803,143.975906 356.560272,142.959045 
	C358.948639,148.411270 357.496613,154.065796 358.041565,159.712860 
	C347.333008,156.897064 344.992432,154.596878 344.844818,146.362259 
z"/>
<path fill="#2F416A" opacity="1.000000" stroke="none" 
	d="
M184.989929,180.423355 
	C187.409439,170.603149 193.691635,164.738983 202.944305,163.201065 
	C213.936310,161.374054 223.057678,165.139725 228.885468,175.679626 
	C230.381500,181.116516 231.850876,186.189011 230.544022,191.608215 
	C227.559540,203.984116 215.548843,212.029602 203.547379,209.577972 
	C190.541443,206.921158 182.651169,195.441315 184.805527,182.314255 
	C184.886108,181.823303 184.934479,181.327072 184.989929,180.423355 
z"/>
<path fill="#2F416A" opacity="1.000000" stroke="none" 
	d="
M278.088074,168.373505 
	C283.619781,163.787460 289.984558,162.367920 297.316406,162.895416 
	C298.510956,164.353455 300.079956,164.010818 301.258759,164.449829 
	C311.287567,168.184753 317.511261,177.445450 316.973297,187.999130 
	C316.464478,197.980911 309.379944,206.549072 299.491394,209.142166 
	C289.500549,211.762085 279.152679,207.576675 273.697021,198.709106 
	C268.238373,189.836685 269.225220,179.185013 276.257721,171.010803 
	C276.903137,170.260605 277.520691,169.486404 278.088074,168.373505 
z"/>
<path fill="#31436B" opacity="1.000000" stroke="none" 
	d="
M237.768997,253.996323 
	C241.447937,261.010162 246.181183,263.778381 252.653748,262.981476 
	C258.651093,262.243134 262.622803,258.182037 264.296448,251.076736 
	C265.591339,245.579391 268.356293,243.255310 272.702148,244.011307 
	C276.887238,244.739334 278.766968,248.112305 278.070221,253.643814 
	C276.369141,267.148926 263.880157,277.422913 249.601990,277.062988 
	C236.300400,276.727692 224.103424,265.452179 223.032822,252.501129 
	C222.647446,247.839340 224.828384,244.601028 228.763168,243.992538 
	C232.807327,243.367142 235.801315,245.669479 236.883148,250.248962 
	C237.149002,251.374313 237.383392,252.507111 237.768997,253.996323 
z"/>
<path fill="#32446C" opacity="1.000000" stroke="none" 
	d="
M243.833344,225.463898 
	C243.790115,219.045517 243.706711,213.073929 243.795471,207.104904 
	C243.869003,202.160980 246.633408,199.073105 250.701706,199.100449 
	C254.740692,199.127609 257.592041,202.232056 257.719055,207.150620 
	C257.864563,212.785736 257.808319,218.428314 257.730927,224.066162 
	C257.674622,228.170990 255.895370,231.312531 251.591812,231.854050 
	C247.360840,232.386444 244.673477,230.195190 243.833344,225.463898 
z"/>
<path fill="#03BAFA" opacity="1.000000" stroke="none" 
	d="
M199.582977,191.241669 
	C197.214615,186.406662 198.141205,182.438919 201.866928,179.303696 
	C204.931366,176.724945 208.547379,176.339417 212.097397,178.301010 
	C215.795425,180.344376 217.495544,183.650116 216.942093,187.869034 
	C216.414444,191.891327 213.984528,194.572281 210.146973,195.611664 
	C205.836700,196.779037 202.350632,195.193207 199.582977,191.241669 
z"/>
<path fill="#03BAFA" opacity="1.000000" stroke="none" 
	d="
M291.629791,177.399994 
	C297.118408,176.771484 300.813354,178.840393 302.499268,183.690369 
	C303.967773,187.914932 302.626953,191.600693 299.012848,194.208878 
	C295.339569,196.859726 291.501068,196.590302 287.930878,193.953613 
	C281.654388,189.318253 283.331482,181.184570 291.629791,177.399994 
z"/>
</svg>