<svg version="1.1" id="Layer_1" xmlns="http://www.w3.org/2000/svg" xmlns:xlink="http://www.w3.org/1999/xlink" x="0px" y="0px"
	 width="100%" viewBox="0 0 512 512" enable-background="new 0 0 512 512" xml:space="preserve">
<path fill="#000000" opacity="1.000000" stroke="none" 
	d="
M1.000000,188.000000 
	C1.000000,125.333336 1.000000,63.166668 1.000000,1.000000 
	C171.666672,1.000000 342.333344,1.000000 513.000000,1.000000 
	C513.000000,171.666672 513.000000,342.333344 513.000000,513.000000 
	C342.333344,513.000000 171.666672,513.000000 1.000000,513.000000 
	C1.000000,404.833344 1.000000,296.666656 1.000000,188.000000 
M298.117737,240.529205 
	C302.967316,239.578323 307.816895,238.627441 312.679077,237.674088 
	C312.679077,230.738831 312.679077,224.018051 312.679077,217.161652 
	C307.232239,217.161652 302.105865,217.161652 296.054321,217.020172 
	C285.824646,217.020172 275.594971,217.020172 265.239746,217.020172 
	C265.239746,228.871613 265.239746,240.210312 265.239746,251.215088 
	C276.003906,247.656738 286.644318,244.139282 298.117737,240.529205 
M265.025238,57.909134 
	C265.025238,62.831818 265.025238,67.754501 265.025238,72.685486 
	C281.304901,72.685486 296.994659,72.685486 312.677399,72.685486 
	C312.677399,56.677071 312.677399,40.986839 312.677399,25.161743 
	C307.230347,25.161743 302.105560,25.161743 296.055267,25.020187 
	C285.799194,25.020187 275.543091,25.020187 265.161682,25.020187 
	C265.161682,36.064190 265.161682,46.522339 265.025238,57.909134 
M296.055267,121.020187 
	C285.799164,121.020187 275.543091,121.020187 265.161713,121.020187 
	C265.161713,132.064194 265.161713,142.522385 265.025238,153.909241 
	C265.025238,158.831909 265.025238,163.754562 265.025238,168.685455 
	C281.304962,168.685455 296.994720,168.685455 312.677368,168.685455 
	C312.677368,152.676971 312.677368,136.986633 312.677368,121.161743 
	C307.230316,121.161743 302.105560,121.161743 296.055267,121.020187 
M272.035858,89.031860 
	C200.484146,89.031860 128.932449,89.031860 57.158409,89.031860 
	C57.158409,92.032372 57.158409,94.496284 57.039474,97.860184 
	C57.039474,100.117294 57.039474,102.374405 57.039474,104.589539 
	C132.054688,104.589539 206.389954,104.589539 280.676636,104.589539 
	C280.676636,99.249390 280.676636,94.325554 280.676636,89.160301 
	C277.890289,89.160301 275.425201,89.160301 272.035858,89.031860 
M57.039471,193.860168 
	C57.039471,196.117279 57.039471,198.374390 57.039471,200.589539 
	C132.054672,200.589539 206.389969,200.589539 280.676636,200.589539 
	C280.676636,195.249374 280.676636,190.325546 280.676636,185.160309 
	C277.890320,185.160309 275.425201,185.160309 272.035858,185.031845 
	C200.484161,185.031845 128.932465,185.031845 57.158401,185.031845 
	C57.158401,188.035110 57.158401,190.497635 57.039471,193.860168 
M232.059174,121.014191 
	C163.105362,121.014191 94.151543,121.014191 25.166117,121.014191 
	C25.166117,132.070114 25.166117,142.526733 25.016497,153.909988 
	C25.016497,158.850037 25.016497,163.790100 25.016497,168.717209 
	C99.941841,168.717209 174.336121,168.717209 248.701401,168.717209 
	C248.701401,152.699432 248.701401,136.965439 248.701401,121.166122 
	C243.264084,121.166122 238.123810,121.166122 232.059174,121.014191 
M232.059158,217.014191 
	C163.105347,217.014191 94.151543,217.014191 25.166117,217.014191 
	C25.166117,228.070114 25.166117,238.526733 25.016497,249.909988 
	C25.016497,254.850052 25.016497,259.790100 25.016497,264.717224 
	C99.941879,264.717224 174.336136,264.717224 248.701401,264.717224 
	C248.701401,248.699310 248.701401,232.965408 248.701401,217.166122 
	C243.264084,217.166122 238.123825,217.166122 232.059158,217.014191 
M232.059158,25.014189 
	C163.105347,25.014189 94.151550,25.014189 25.166117,25.014189 
	C25.166117,36.070103 25.166117,46.526718 25.016495,57.909977 
	C25.016495,62.850018 25.016495,67.790054 25.016495,72.717216 
	C99.941811,72.717216 174.336105,72.717216 248.701401,72.717216 
	C248.701401,56.699455 248.701401,40.965458 248.701401,25.166128 
	C243.264236,25.166128 238.123886,25.166128 232.059158,25.014189 
M29.422073,440.055054 
	C17.246670,462.350647 30.887430,488.517426 55.385162,488.853455 
	C88.356583,489.305786 121.339836,489.116730 154.315964,488.896606 
	C167.648590,488.807617 179.218658,479.626862 183.389664,466.829102 
	C187.558319,454.038513 183.388107,440.101654 172.742661,431.914185 
	C163.303696,424.654633 152.877640,423.142120 141.665604,427.147064 
	C133.583252,430.034119 129.905914,427.935242 128.204315,419.511475 
	C127.778336,417.402618 127.323090,415.263611 126.549652,413.266937 
	C121.602821,400.496277 109.040680,392.455811 95.137894,393.050720 
	C81.718193,393.624939 69.869324,403.228088 66.099487,416.585449 
	C64.249924,423.138824 62.378548,424.915771 56.824512,424.993408 
	C45.311905,425.154419 36.362900,430.011993 29.422073,440.055054 
M318.530151,309.001251 
	C300.272369,306.196472 282.265961,302.475494 264.998688,293.828644 
	C264.998688,307.353912 265.224670,320.282593 264.880493,333.196106 
	C264.753876,337.947754 266.556824,341.059052 270.511292,342.715546 
	C278.454102,346.042816 286.347656,349.913147 294.659454,351.864838 
	C347.320465,364.230194 400.264038,364.082794 453.124756,353.384644 
	C463.569305,351.270844 473.539459,346.596130 483.524261,342.593262 
	C485.778107,341.689758 488.662842,338.707001 488.732269,336.598267 
	C489.194977,322.546936 488.972260,308.473083 488.972260,294.883362 
	C433.547974,315.814148 376.763519,315.739685 318.530151,309.001251 
M440.670654,372.144379 
	C381.221771,380.112335 322.370667,380.298920 264.998901,358.932617 
	C264.998901,371.488647 265.214294,384.319214 264.886383,397.135895 
	C264.765564,401.858673 266.502380,405.033691 270.485840,406.701111 
	C278.437531,410.029602 286.335083,413.922150 294.655884,415.863617 
	C347.682709,428.236176 400.958740,428.194733 454.156433,417.101013 
	C463.968933,415.054749 473.336151,410.727356 482.777435,407.109680 
	C487.379333,405.346313 489.435944,401.814545 489.119843,396.472809 
	C488.657990,388.668243 489.001038,380.816040 489.001038,372.984161 
	C489.001038,368.111481 489.001099,363.238800 489.001099,357.783234 
	C473.472595,365.620392 457.654968,369.347260 440.670654,372.144379 
M388.430237,488.916626 
	C409.565002,488.119568 430.708527,486.897522 451.289551,481.800262 
	C462.025818,479.141266 472.452484,475.052795 482.755066,470.947632 
	C485.353455,469.912231 488.606567,466.402863 488.711426,463.910583 
	C489.290619,450.145081 488.988556,436.342529 488.988556,422.150909 
	C453.086456,438.181488 415.304016,440.811981 377.300110,440.840851 
	C339.120758,440.869843 301.170807,438.238251 264.999298,422.158020 
	C264.999298,435.124695 265.280914,447.734192 264.869751,460.321045 
	C264.688782,465.861633 266.750275,469.444946 271.529388,471.287781 
	C280.498657,474.746338 289.429077,478.587250 298.718292,480.882385 
	C327.838165,488.077301 357.587067,489.353027 388.430237,488.916626 
M355.958130,249.498505 
	C339.760468,251.341125 323.480591,252.660599 307.390686,255.188950 
	C294.095978,257.278076 280.957428,260.671967 269.334961,267.999054 
	C263.619965,271.601929 263.362396,274.853210 269.305328,277.805389 
	C277.430176,281.841370 285.897186,285.756836 294.665222,287.836456 
	C347.001892,300.249756 399.634399,299.873505 452.264740,289.725555 
	C463.840515,287.493530 475.309082,284.288055 485.305267,277.562592 
	C490.146454,274.305481 490.326904,271.375031 485.296997,268.549225 
	C479.258148,265.156555 472.866333,262.054443 466.253357,260.077637 
	C430.529694,249.398743 393.816162,248.187866 355.958130,249.498505 
M167.740768,396.467285 
	C162.099869,395.695496 160.977631,391.471130 160.096283,386.818085 
	C157.031281,370.636536 142.337830,359.452759 126.022461,361.147644 
	C115.428558,362.248108 107.227272,367.396515 101.359474,377.176514 
	C121.901596,380.307526 135.374557,391.244232 142.389145,409.562836 
	C174.695908,406.637115 194.171387,420.922333 201.306396,452.192810 
	C215.019043,443.997559 220.503433,427.642181 214.635056,413.055450 
	C208.879105,398.748199 193.548965,390.494019 178.642593,393.777802 
	C175.250717,394.524994 171.936935,395.626740 167.740768,396.467285 
M381.106201,151.847031 
	C384.454010,149.453201 385.874084,146.313477 384.489838,142.305801 
	C383.039795,138.107574 378.424896,135.965286 374.367981,137.445389 
	C370.387207,138.897705 368.131927,143.142914 369.247772,147.083359 
	C370.589600,151.821823 374.742310,153.716187 381.106201,151.847031 
z"/>
<path fill="#E1E6F5" opacity="1.000000" stroke="none" 
	d="
M29.638903,439.758484 
	C36.362900,430.011993 45.311905,425.154419 56.824512,424.993408 
	C62.378548,424.915771 64.249924,423.138824 66.099487,416.585449 
	C69.869324,403.228088 81.718193,393.624939 95.137894,393.050720 
	C109.040680,392.455811 121.602821,400.496277 126.549652,413.266937 
	C127.323090,415.263611 127.778336,417.402618 128.204315,419.511475 
	C129.905914,427.935242 133.583252,430.034119 141.665604,427.147064 
	C152.877640,423.142120 163.303696,424.654633 172.742661,431.914185 
	C183.388107,440.101654 187.558319,454.038513 183.389664,466.829102 
	C179.218658,479.626862 167.648590,488.807617 154.315964,488.896606 
	C121.339836,489.116730 88.356583,489.305786 55.385162,488.853455 
	C30.887430,488.517426 17.246670,462.350647 29.638903,439.758484 
z"/>
<path fill="#5E86C9" opacity="1.000000" stroke="none" 
	d="
M318.968964,309.040466 
	C376.763519,315.739685 433.547974,315.814148 488.972260,294.883362 
	C488.972260,308.473083 489.194977,322.546936 488.732269,336.598267 
	C488.662842,338.707001 485.778107,341.689758 483.524261,342.593262 
	C473.539459,346.596130 463.569305,351.270844 453.124756,353.384644 
	C400.264038,364.082794 347.320465,364.230194 294.659454,351.864838 
	C286.347656,349.913147 278.454102,346.042816 270.511292,342.715546 
	C266.556824,341.059052 264.753876,337.947754 264.880493,333.196106 
	C265.224670,320.282593 264.998688,307.353912 264.998688,293.828644 
	C282.265961,302.475494 300.272369,306.196472 318.968964,309.040466 
z"/>
<path fill="#4C6BB4" opacity="1.000000" stroke="none" 
	d="
M441.102783,372.091248 
	C457.654968,369.347260 473.472595,365.620392 489.001099,357.783234 
	C489.001099,363.238800 489.001038,368.111481 489.001038,372.984161 
	C489.001038,380.816040 488.657990,388.668243 489.119843,396.472809 
	C489.435944,401.814545 487.379333,405.346313 482.777435,407.109680 
	C473.336151,410.727356 463.968933,415.054749 454.156433,417.101013 
	C400.958740,428.194733 347.682709,428.236176 294.655884,415.863617 
	C286.335083,413.922150 278.437531,410.029602 270.485840,406.701111 
	C266.502380,405.033691 264.765564,401.858673 264.886383,397.135895 
	C265.214294,384.319214 264.998901,371.488647 264.998901,358.932617 
	C322.370667,380.298920 381.221771,380.112335 441.102783,372.091248 
z"/>
<path fill="#3B5891" opacity="1.000000" stroke="none" 
	d="
M387.938904,488.924194 
	C357.587067,489.353027 327.838165,488.077301 298.718292,480.882385 
	C289.429077,478.587250 280.498657,474.746338 271.529388,471.287781 
	C266.750275,469.444946 264.688782,465.861633 264.869751,460.321045 
	C265.280914,447.734192 264.999298,435.124695 264.999298,422.158020 
	C301.170807,438.238251 339.120758,440.869843 377.300110,440.840851 
	C415.304016,440.811981 453.086456,438.181488 488.988556,422.150909 
	C488.988556,436.342529 489.290619,450.145081 488.711426,463.910583 
	C488.606567,466.402863 485.353455,469.912231 482.755066,470.947632 
	C472.452484,475.052795 462.025818,479.141266 451.289551,481.800262 
	C430.708527,486.897522 409.565002,488.119568 387.938904,488.924194 
z"/>
<path fill="#779FD2" opacity="1.000000" stroke="none" 
	d="
M356.425964,249.463211 
	C393.816162,248.187866 430.529694,249.398743 466.253357,260.077637 
	C472.866333,262.054443 479.258148,265.156555 485.296997,268.549225 
	C490.326904,271.375031 490.146454,274.305481 485.305267,277.562592 
	C475.309082,284.288055 463.840515,287.493530 452.264740,289.725555 
	C399.634399,299.873505 347.001892,300.249756 294.665222,287.836456 
	C285.897186,285.756836 277.430176,281.841370 269.305328,277.805389 
	C263.362396,274.853210 263.619965,271.601929 269.334961,267.999054 
	C280.957428,260.671967 294.095978,257.278076 307.390686,255.188950 
	C323.480591,252.660599 339.760468,251.341125 356.425964,249.463211 
z"/>
<path fill="#C8CDED" opacity="1.000000" stroke="none" 
	d="
M232.983551,25.166128 
	C238.123886,25.166128 243.264236,25.166128 248.701401,25.166128 
	C248.701401,40.965458 248.701401,56.699455 248.701401,72.717216 
	C174.336105,72.717216 99.941811,72.717216 25.016495,72.717216 
	C25.016495,67.790054 25.016495,62.850018 25.547932,57.451595 
	C31.086573,56.983658 36.093777,56.974098 41.563122,56.980930 
	C84.316498,56.986408 126.607735,56.975494 169.372421,56.974934 
	C174.930908,56.978374 180.015945,56.971462 185.563141,56.980934 
	C196.316513,56.986408 206.607742,56.975494 217.361526,56.974808 
	C219.312103,56.990005 220.800125,57.001019 222.288132,56.998936 
	C230.563843,56.987343 232.987076,54.619328 232.996994,46.494587 
	C233.005661,39.385120 232.989014,32.275616 232.983551,25.166128 
z"/>
<path fill="#C8CDED" opacity="1.000000" stroke="none" 
	d="
M232.983551,217.166122 
	C238.123825,217.166122 243.264084,217.166122 248.701401,217.166122 
	C248.701401,232.965408 248.701401,248.699310 248.701401,264.717224 
	C174.336136,264.717224 99.941879,264.717224 25.016497,264.717224 
	C25.016497,259.790100 25.016497,254.850052 25.547932,249.451599 
	C31.086607,248.983704 36.093845,248.974182 41.563213,248.980988 
	C84.316551,248.986435 126.607750,248.975525 169.372406,248.974960 
	C174.930923,248.978394 180.015976,248.971497 185.563171,248.980957 
	C196.316528,248.986404 206.607742,248.975510 217.361511,248.974823 
	C219.312103,248.990036 220.800125,249.001083 222.288132,248.998993 
	C230.563843,248.987396 232.987091,246.619370 232.996994,238.494583 
	C233.005646,231.385117 232.989014,224.275604 232.983551,217.166122 
z"/>
<path fill="#C8CDED" opacity="1.000000" stroke="none" 
	d="
M232.983521,121.166122 
	C238.123810,121.166122 243.264084,121.166122 248.701401,121.166122 
	C248.701401,136.965439 248.701401,152.699432 248.701401,168.717209 
	C174.336121,168.717209 99.941841,168.717209 25.016497,168.717209 
	C25.016497,163.790100 25.016497,158.850037 25.547932,153.451599 
	C31.086607,152.983704 36.093845,152.974182 41.563213,152.980988 
	C84.316551,152.986420 126.607750,152.975525 169.372406,152.974960 
	C174.930923,152.978394 180.015976,152.971497 185.563171,152.980957 
	C196.316528,152.986420 206.607742,152.975525 217.361511,152.974838 
	C219.312103,152.990021 220.800125,153.001083 222.288132,152.998993 
	C230.563843,152.987381 232.987091,150.619370 232.996994,142.494583 
	C233.005661,135.385117 232.988998,128.275604 232.983521,121.166122 
z"/>
<path fill="#E2E7F6" opacity="1.000000" stroke="none" 
	d="
M41.100979,56.964542 
	C36.093777,56.974098 31.086573,56.983658 25.622742,56.988274 
	C25.166117,46.526718 25.166117,36.070103 25.166117,25.014189 
	C94.151550,25.014189 163.105347,25.014189 232.521362,25.090158 
	C232.989014,32.275616 233.005661,39.385120 232.996994,46.494587 
	C232.987076,54.619328 230.563843,56.987343 222.288132,56.998936 
	C220.800125,57.001019 219.312103,56.990005 217.408173,56.511703 
	C216.992279,51.104481 216.992279,46.170586 216.992279,41.278725 
	C206.042236,41.278725 195.643234,41.278725 185.100983,41.278725 
	C185.100983,46.692036 185.100983,51.828289 185.100983,56.964546 
	C180.015945,56.971462 174.930908,56.978374 169.419067,56.511833 
	C168.992279,51.102886 168.992279,46.167397 168.992279,41.276100 
	C126.043182,41.276100 83.648384,41.276100 41.100979,41.276100 
	C41.100979,46.688377 41.100979,51.826458 41.100979,56.964542 
z"/>
<path fill="#E2E7F6" opacity="1.000000" stroke="none" 
	d="
M185.101028,248.964600 
	C180.015976,248.971497 174.930923,248.978394 169.419067,248.511841 
	C168.992279,243.102905 168.992279,238.167404 168.992279,233.276154 
	C126.043167,233.276154 83.648338,233.276154 41.101082,233.276154 
	C41.101082,238.688538 41.101082,243.826599 41.101082,248.964661 
	C36.093845,248.974182 31.086607,248.983704 25.622742,248.988281 
	C25.166117,238.526733 25.166117,228.070114 25.166117,217.014191 
	C94.151543,217.014191 163.105347,217.014191 232.521347,217.090149 
	C232.989014,224.275604 233.005646,231.385117 232.996994,238.494583 
	C232.987091,246.619370 230.563843,248.987396 222.288132,248.998993 
	C220.800125,249.001083 219.312103,248.990036 217.408173,248.511719 
	C216.992279,243.104492 216.992279,238.170593 216.992279,233.278748 
	C206.042404,233.278748 195.643326,233.278748 185.101028,233.278748 
	C185.101028,238.692047 185.101028,243.828339 185.101028,248.964600 
z"/>
<path fill="#E2E7F6" opacity="1.000000" stroke="none" 
	d="
M232.521347,121.090157 
	C232.988998,128.275604 233.005661,135.385117 232.996994,142.494583 
	C232.987091,150.619370 230.563843,152.987381 222.288132,152.998993 
	C220.800125,153.001083 219.312103,152.990021 217.408173,152.511719 
	C216.992279,147.104492 216.992279,142.170593 216.992279,137.278748 
	C206.042404,137.278748 195.643326,137.278748 185.101028,137.278748 
	C185.101028,142.692017 185.101028,147.828308 185.101028,152.964600 
	C180.015976,152.971497 174.930923,152.978394 169.419067,152.511841 
	C168.992279,147.102905 168.992279,142.167404 168.992279,137.276154 
	C126.043167,137.276154 83.648338,137.276154 41.101082,137.276154 
	C41.101082,142.688538 41.101082,147.826599 41.101082,152.964661 
	C36.093845,152.974182 31.086607,152.983704 25.622742,152.988281 
	C25.166117,142.526733 25.166117,132.070114 25.166117,121.014191 
	C94.151543,121.014191 163.105362,121.014191 232.521347,121.090157 
z"/>
<path fill="#C6CBEA" opacity="1.000000" stroke="none" 
	d="
M168.163986,396.516296 
	C171.936935,395.626740 175.250717,394.524994 178.642593,393.777802 
	C193.548965,390.494019 208.879105,398.748199 214.635056,413.055450 
	C220.503433,427.642181 215.019043,443.997559 201.306396,452.192810 
	C194.171387,420.922333 174.695908,406.637115 142.389145,409.562836 
	C135.374557,391.244232 121.901596,380.307526 101.359474,377.176514 
	C107.227272,367.396515 115.428558,362.248108 126.022461,361.147644 
	C142.337830,359.452759 157.031281,370.636536 160.096283,386.818085 
	C160.977631,391.471130 162.099869,395.695496 168.163986,396.516296 
z"/>
<path fill="#3B5891" opacity="1.000000" stroke="none" 
	d="
M272.960114,185.160309 
	C275.425201,185.160309 277.890320,185.160309 280.676636,185.160309 
	C280.676636,190.325546 280.676636,195.249374 280.676636,200.589539 
	C206.389969,200.589539 132.054672,200.589539 57.039471,200.589539 
	C57.039471,198.374390 57.039471,196.117279 57.556450,193.423401 
	C126.380562,192.991837 194.687683,193.000595 262.994812,192.996658 
	C269.667206,192.996262 271.784698,191.293655 272.960114,185.160309 
z"/>
<path fill="#3B5891" opacity="1.000000" stroke="none" 
	d="
M272.960114,89.160301 
	C275.425201,89.160301 277.890289,89.160301 280.676636,89.160301 
	C280.676636,94.325554 280.676636,99.249390 280.676636,104.589539 
	C206.389954,104.589539 132.054688,104.589539 57.039474,104.589539 
	C57.039474,102.374405 57.039474,100.117294 57.556458,97.423409 
	C126.380569,96.991837 194.687714,97.000595 262.994843,96.996651 
	C269.667328,96.996262 271.784790,95.293655 272.960114,89.160301 
z"/>
<path fill="#4C6BB4" opacity="1.000000" stroke="none" 
	d="
M272.497986,185.096069 
	C271.784698,191.293655 269.667206,192.996262 262.994812,192.996658 
	C194.687683,193.000595 126.380562,192.991837 57.615917,192.973389 
	C57.158401,190.497635 57.158401,188.035110 57.158401,185.031845 
	C128.932465,185.031845 200.484161,185.031845 272.497986,185.096069 
z"/>
<path fill="#4C6BB4" opacity="1.000000" stroke="none" 
	d="
M272.497986,89.096085 
	C271.784790,95.293655 269.667328,96.996262 262.994843,96.996651 
	C194.687714,97.000595 126.380569,96.991837 57.615921,96.973419 
	C57.158409,94.496284 57.158409,92.032372 57.158409,89.031860 
	C128.932449,89.031860 200.484146,89.031860 272.497986,89.096085 
z"/>
<path fill="#5E86C9" opacity="1.000000" stroke="none" 
	d="
M296.980774,121.161743 
	C302.105560,121.161743 307.230316,121.161743 312.677368,121.161743 
	C312.677368,136.986633 312.677368,152.676971 312.677368,168.685455 
	C296.994720,168.685455 281.304962,168.685455 265.025238,168.685455 
	C265.025238,163.754562 265.025238,158.831909 265.551514,153.451752 
	C273.399261,152.996872 280.721313,153.056915 288.042053,152.984192 
	C294.054932,152.924469 296.922485,150.093048 296.981689,144.124313 
	C297.057587,136.470886 296.987793,128.815994 296.980774,121.161743 
z"/>
<path fill="#5E86C9" opacity="1.000000" stroke="none" 
	d="
M296.980774,25.161743 
	C302.105560,25.161743 307.230347,25.161743 312.677399,25.161743 
	C312.677399,40.986839 312.677399,56.677071 312.677399,72.685486 
	C296.994659,72.685486 281.304901,72.685486 265.025238,72.685486 
	C265.025238,67.754501 265.025238,62.831818 265.551514,57.451706 
	C273.399261,56.996883 280.721313,57.056885 288.042053,56.984192 
	C294.054871,56.924484 296.922455,54.093109 296.981689,48.124313 
	C297.057587,40.470879 296.987793,32.815998 296.980774,25.161743 
z"/>
<path fill="#779FD2" opacity="1.000000" stroke="none" 
	d="
M296.518005,25.090965 
	C296.987793,32.815998 297.057587,40.470879 296.981689,48.124313 
	C296.922455,54.093109 294.054871,56.924484 288.042053,56.984192 
	C280.721313,57.056885 273.399261,56.996883 265.619720,56.987381 
	C265.161682,46.522339 265.161682,36.064190 265.161682,25.020187 
	C275.543091,25.020187 285.799194,25.020187 296.518005,25.090965 
z"/>
<path fill="#779FD2" opacity="1.000000" stroke="none" 
	d="
M296.518005,121.090965 
	C296.987793,128.815994 297.057587,136.470886 296.981689,144.124313 
	C296.922485,150.093048 294.054932,152.924469 288.042053,152.984192 
	C280.721313,153.056915 273.399261,152.996872 265.619751,152.987427 
	C265.161713,142.522385 265.161713,132.064194 265.161713,121.020187 
	C275.543091,121.020187 285.799164,121.020187 296.518005,121.090965 
z"/>
<path fill="#779FD2" opacity="1.000000" stroke="none" 
	d="
M297.284760,240.621826 
	C286.644318,244.139282 276.003906,247.656738 265.239746,251.215088 
	C265.239746,240.210312 265.239746,228.871613 265.239746,217.020172 
	C275.594971,217.020172 285.824646,217.020172 296.524109,217.548920 
	C297.090851,225.592377 297.187805,233.107101 297.284760,240.621826 
z"/>
<path fill="#5E86C9" opacity="1.000000" stroke="none" 
	d="
M297.701233,240.575516 
	C297.187805,233.107101 297.090851,225.592377 296.986694,217.619659 
	C302.105865,217.161652 307.232239,217.161652 312.679077,217.161652 
	C312.679077,224.018051 312.679077,230.738831 312.679077,237.674088 
	C307.816895,238.627441 302.967316,239.578323 297.701233,240.575516 
z"/>
<path fill="#E9A139" opacity="1.000000" stroke="none" 
	d="
M380.746887,152.006042 
	C374.742310,153.716187 370.589600,151.821823 369.247772,147.083359 
	C368.131927,143.142914 370.387207,138.897705 374.367981,137.445389 
	C378.424896,135.965286 383.039795,138.107574 384.489838,142.305801 
	C385.874084,146.313477 384.454010,149.453201 380.746887,152.006042 
z"/>
<path fill="#000000" opacity="1.000000" stroke="none" 
	d="
M41.563122,56.980930 
	C41.100979,51.826458 41.100979,46.688377 41.100979,41.276100 
	C83.648384,41.276100 126.043182,41.276100 168.992279,41.276100 
	C168.992279,46.167397 168.992279,51.102886 168.945618,56.501480 
	C126.607735,56.975494 84.316498,56.986408 41.563122,56.980930 
z"/>
<path fill="#000000" opacity="1.000000" stroke="none" 
	d="
M185.563141,56.980934 
	C185.100983,51.828289 185.100983,46.692036 185.100983,41.278725 
	C195.643234,41.278725 206.042236,41.278725 216.992279,41.278725 
	C216.992279,46.170586 216.992279,51.104481 216.945618,56.501480 
	C206.607742,56.975494 196.316513,56.986408 185.563141,56.980934 
z"/>
<path fill="#000000" opacity="1.000000" stroke="none" 
	d="
M41.563213,248.980988 
	C41.101082,243.826599 41.101082,238.688538 41.101082,233.276154 
	C83.648338,233.276154 126.043167,233.276154 168.992279,233.276154 
	C168.992279,238.167404 168.992279,243.102905 168.945618,248.501526 
	C126.607750,248.975525 84.316551,248.986435 41.563213,248.980988 
z"/>
<path fill="#000000" opacity="1.000000" stroke="none" 
	d="
M185.563171,248.980957 
	C185.101028,243.828339 185.101028,238.692047 185.101028,233.278748 
	C195.643326,233.278748 206.042404,233.278748 216.992279,233.278748 
	C216.992279,238.170593 216.992279,243.104492 216.945618,248.501511 
	C206.607742,248.975510 196.316528,248.986404 185.563171,248.980957 
z"/>
<path fill="#000000" opacity="1.000000" stroke="none" 
	d="
M41.563213,152.980988 
	C41.101082,147.826599 41.101082,142.688538 41.101082,137.276154 
	C83.648338,137.276154 126.043167,137.276154 168.992279,137.276154 
	C168.992279,142.167404 168.992279,147.102905 168.945618,152.501526 
	C126.607750,152.975525 84.316551,152.986420 41.563213,152.980988 
z"/>
<path fill="#000000" opacity="1.000000" stroke="none" 
	d="
M185.563171,152.980957 
	C185.101028,147.828308 185.101028,142.692017 185.101028,137.278748 
	C195.643326,137.278748 206.042404,137.278748 216.992279,137.278748 
	C216.992279,142.170593 216.992279,147.104492 216.945618,152.501526 
	C206.607742,152.975525 196.316528,152.986420 185.563171,152.980957 
z"/>
</svg>