<svg version="1.1" id="Layer_1" xmlns="http://www.w3.org/2000/svg" xmlns:xlink="http://www.w3.org/1999/xlink" x="0px" y="0px"
	 width="100%" viewBox="0 0 512 512" enable-background="new 0 0 512 512" xml:space="preserve">
<path fill="#000000" opacity="1.000000" stroke="none" 
	d="
M513.000000,179.000000 
	C513.000000,290.639526 513.000000,401.779053 513.000000,512.959290 
	C342.402130,512.959290 171.804245,512.959290 1.103185,512.959290 
	C1.103185,342.443848 1.103185,171.887589 1.103185,1.165670 
	C171.666534,1.165670 342.333252,1.165670 513.000000,1.165670 
	C513.000000,60.195713 513.000000,119.347855 513.000000,179.000000 
M497.967560,276.036041 
	C497.976654,206.040009 498.036133,136.043900 497.929504,66.048035 
	C497.916534,57.535358 494.080139,50.158405 487.933868,44.527630 
	C480.749634,37.945969 471.643646,36.035862 462.056824,36.037582 
	C355.729370,36.056671 249.401901,36.048954 143.074448,36.054554 
	C141.076248,36.054657 139.078049,36.128780 136.141479,36.029915 
	C107.651833,36.019299 79.161942,35.949268 50.672829,36.067245 
	C46.759254,36.083450 42.721397,36.577240 38.960808,37.632767 
	C24.627861,41.655739 16.002295,53.450455 16.001820,68.515282 
	C15.998582,171.145477 16.158186,273.776123 15.861837,376.405457 
	C15.804996,396.090332 30.556370,410.154541 49.837864,410.070221 
	C98.486305,409.857513 147.136307,409.999756 195.785690,409.999756 
	C197.708771,409.999756 199.631851,409.999756 202.037247,409.999756 
	C194.595261,430.567749 183.725494,448.284607 170.005463,464.994934 
	C157.840652,464.996521 145.675751,464.973511 133.511063,465.012451 
	C128.996735,465.026886 126.955811,467.182617 127.000008,471.664886 
	C127.046005,476.330719 129.502930,477.995422 136.480301,477.995911 
	C216.801270,478.001434 297.122253,478.001404 377.443207,477.984711 
	C378.919159,477.984375 380.414978,477.877045 381.867310,477.623627 
	C386.355591,476.840515 387.837433,473.853973 386.934723,469.749847 
	C386.169617,466.271393 383.732788,464.904755 380.059601,464.942200 
	C367.730743,465.067810 355.399384,464.948975 342.758362,464.321167 
	C337.108704,456.186920 331.459015,448.052704 325.641449,439.248444 
	C321.122253,429.508453 316.603058,419.768463 313.010437,410.007690 
	C363.930420,410.004883 414.852325,410.257141 465.769318,409.865509 
	C484.430298,409.721954 497.332123,397.784973 497.735748,380.789490 
	C498.557159,346.200165 497.910889,311.575989 497.967560,276.036041 
z"/>
<path fill="#4E6575" opacity="1.000000" stroke="none" 
	d="
M325.809326,439.918488 
	C331.459015,448.052704 337.108704,456.186920 342.467102,464.793091 
	C341.345886,465.317139 340.515900,465.414703 339.685944,465.414825 
	C284.908661,465.424286 230.131409,465.429901 175.354156,465.406769 
	C173.879715,465.406128 172.405411,465.086670 170.931046,464.915894 
	C183.725494,448.284607 194.595261,430.567749 202.037247,409.999756 
	C199.631851,409.999756 197.708771,409.999756 195.785690,409.999756 
	C147.136307,409.999756 98.486305,409.857513 49.837864,410.070221 
	C30.556370,410.154541 15.804996,396.090332 15.861837,376.405457 
	C16.158186,273.776123 15.998582,171.145477 16.001820,68.515282 
	C16.002295,53.450455 24.627861,41.655739 38.960808,37.632767 
	C42.721397,36.577240 46.759254,36.083450 50.672829,36.067245 
	C79.161942,35.949268 107.651833,36.019299 136.579010,36.556343 
	C136.971954,47.309490 136.927368,57.536209 136.425232,67.819397 
	C108.811935,67.902245 81.656189,67.926262 54.500446,67.956627 
	C47.603081,67.964340 47.571609,67.973625 47.571056,74.739555 
	C47.563835,163.205780 47.563980,251.672012 47.570492,340.138245 
	C47.571003,347.081909 47.599464,347.104034 54.342739,347.104248 
	C189.457825,347.108612 324.572906,347.108582 459.687988,347.104095 
	C466.285492,347.103882 466.300903,347.081055 466.322266,340.544006 
	C466.391449,319.387299 466.448212,298.230530 466.945801,277.101135 
	C477.544373,277.074402 487.706879,277.020264 497.869385,276.966156 
	C497.910889,311.575989 498.557159,346.200165 497.735748,380.789490 
	C497.332123,397.784973 484.430298,409.721954 465.769318,409.865509 
	C414.852325,410.257141 363.930420,410.004883 312.155151,409.862091 
	C309.826691,409.496246 308.353790,409.086304 306.880249,409.083954 
	C281.058472,409.043121 255.236298,409.113678 229.415024,408.992371 
	C224.878204,408.971069 223.720917,411.023254 223.842789,415.119690 
	C224.250793,428.834137 236.139877,439.860443 251.343384,439.942169 
	C276.164612,440.075592 300.987274,439.940369 325.809326,439.918488 
M256.633545,385.951080 
	C262.967743,384.827820 264.997803,382.121796 264.038086,376.081024 
	C263.444550,372.345062 259.655060,369.673004 255.291840,371.282074 
	C252.738174,372.223846 249.849640,375.357605 249.311050,377.960358 
	C248.431671,382.210052 251.788986,384.745483 256.633545,385.951080 
z"/>
<path fill="#7A8A95" opacity="1.000000" stroke="none" 
	d="
M136.882782,67.762932 
	C136.927368,57.536209 136.971954,47.309490 137.048187,36.625568 
	C139.078049,36.128780 141.076248,36.054657 143.074448,36.054554 
	C249.401901,36.048954 355.729370,36.056671 462.056824,36.037582 
	C471.643646,36.035862 480.749634,37.945969 487.933868,44.527630 
	C494.080139,50.158405 497.916534,57.535358 497.929504,66.048035 
	C498.036133,136.043900 497.976654,206.040009 497.918457,276.501099 
	C487.706879,277.020264 477.544373,277.074402 466.888763,276.631470 
	C466.339844,273.483093 466.241516,270.831879 466.234802,268.180359 
	C466.178192,245.797882 466.138336,223.415329 466.169312,200.566650 
	C466.221985,175.414276 466.198792,150.728088 466.304749,125.654274 
	C466.433929,106.338165 466.433929,87.409668 466.433929,67.936531 
	C463.691040,67.936531 461.559448,67.936539 459.427856,67.936531 
	C421.795563,67.936501 384.163300,67.920296 346.531006,67.945381 
	C333.712524,67.953926 320.894135,68.066360 307.604858,68.077789 
	C280.771515,68.060310 254.408981,68.096375 227.576599,68.088654 
	C223.285156,68.019135 219.463577,67.980286 215.641922,67.969765 
	C189.388885,67.897507 163.135834,67.831177 136.882782,67.762932 
z"/>
<path fill="#E2E2E2" opacity="1.000000" stroke="none" 
	d="
M170.468262,464.955414 
	C172.405411,465.086670 173.879715,465.406128 175.354156,465.406769 
	C230.131409,465.429901 284.908661,465.424286 339.685944,465.414825 
	C340.515900,465.414703 341.345886,465.317139 342.622437,465.094360 
	C355.399384,464.948975 367.730743,465.067810 380.059601,464.942200 
	C383.732788,464.904755 386.169617,466.271393 386.934723,469.749847 
	C387.837433,473.853973 386.355591,476.840515 381.867310,477.623627 
	C380.414978,477.877045 378.919159,477.984375 377.443207,477.984711 
	C297.122253,478.001404 216.801270,478.001434 136.480301,477.995911 
	C129.502930,477.995422 127.046005,476.330719 127.000008,471.664886 
	C126.955811,467.182617 128.996735,465.026886 133.511063,465.012451 
	C145.675751,464.973511 157.840652,464.996521 170.468262,464.955414 
z"/>
<path fill="#7A8A95" opacity="1.000000" stroke="none" 
	d="
M325.725403,439.583466 
	C300.987274,439.940369 276.164612,440.075592 251.343384,439.942169 
	C236.139877,439.860443 224.250793,428.834137 223.842789,415.119690 
	C223.720917,411.023254 224.878204,408.971069 229.415024,408.992371 
	C255.236298,409.113678 281.058472,409.043121 306.880249,409.083954 
	C308.353790,409.086304 309.826691,409.496246 311.691895,409.872498 
	C316.603058,419.768463 321.122253,429.508453 325.725403,439.583466 
z"/>
<path fill="#7CB5E8" opacity="1.000000" stroke="none" 
	d="
M466.093414,201.032806 
	C466.138336,223.415329 466.178192,245.797882 466.234802,268.180359 
	C466.241516,270.831879 466.339844,273.483093 466.452698,276.604126 
	C466.448212,298.230530 466.391449,319.387299 466.322266,340.544006 
	C466.300903,347.081055 466.285492,347.103882 459.687988,347.104095 
	C324.572906,347.108582 189.457825,347.108612 54.342739,347.104248 
	C47.599464,347.104034 47.571003,347.081909 47.570492,340.138245 
	C47.563980,251.672012 47.563835,163.205780 47.571056,74.739555 
	C47.571609,67.973625 47.603081,67.964340 54.500446,67.956627 
	C81.656189,67.926262 108.811935,67.902245 136.425232,67.819397 
	C163.135834,67.831177 189.388885,67.897507 215.641922,67.969765 
	C219.463577,67.980286 223.285156,68.019135 227.570068,68.547760 
	C228.026199,81.035141 228.126007,93.020828 227.990677,105.003868 
	C227.664078,133.921448 237.657181,158.413284 259.300781,177.799683 
	C273.996216,190.962524 291.117157,198.812943 311.055542,200.614838 
	C311.152130,203.726913 311.201691,206.391510 311.202179,209.056122 
	C311.208313,242.870392 311.275360,276.684967 311.123779,310.498566 
	C311.104431,314.817596 312.271637,316.425385 316.746521,316.207275 
	C323.726105,315.867004 330.736023,316.019348 337.729462,316.152679 
	C340.800049,316.211212 342.375641,315.348083 342.262421,311.957458 
	C342.051331,305.636139 342.092834,299.306427 342.097778,292.516968 
	C342.231934,261.715942 342.297607,231.378098 342.809082,201.034454 
	C384.201111,201.030029 425.147247,201.031418 466.093414,201.032806 
M388.853577,254.145660 
	C385.026733,254.123001 381.194366,254.218109 377.374756,254.040222 
	C374.348724,253.899261 373.240051,255.147598 373.250793,258.118835 
	C373.315826,276.090698 373.315948,294.063080 373.250458,312.034943 
	C373.239716,314.985596 374.309723,316.202484 377.344971,316.150330 
	C384.997498,316.018677 392.655182,316.018951 400.307831,316.145020 
	C403.418671,316.196289 404.377197,314.787415 404.310547,311.926147 
	C404.163361,305.608398 404.151550,299.287537 404.226990,292.043152 
	C404.259033,281.110413 404.206543,270.176453 404.369385,259.245667 
	C404.425629,255.472473 403.127350,253.696381 399.182098,254.008667 
	C396.051758,254.256470 392.896118,254.184631 388.853577,254.145660 
M264.180725,223.102509 
	C260.517242,223.088852 256.847748,223.200043 253.192169,223.023010 
	C250.136337,222.875031 249.119965,224.153229 249.126633,227.123322 
	C249.190140,255.433655 249.191589,283.744263 249.125488,312.054596 
	C249.118469,315.060974 250.225861,316.193726 253.224030,316.146179 
	C260.882538,316.024719 268.545868,316.014740 276.203949,316.148590 
	C279.311829,316.202881 280.275452,314.851440 280.201569,311.956146 
	C280.040283,305.633789 280.047638,299.307068 280.116577,292.055664 
	C280.146942,270.781372 280.121399,249.506729 280.259613,228.233139 
	C280.284271,224.435684 279.059052,222.686569 275.088257,222.995605 
	C271.782227,223.252930 268.447723,223.144943 264.180725,223.102509 
M139.140594,99.074768 
	C129.202011,99.433151 119.702980,101.407768 110.427933,106.955482 
	C91.166519,116.489929 74.257088,144.605820 78.928322,169.513657 
	C81.483620,183.138916 86.946053,194.936066 97.074722,205.212814 
	C111.551392,219.495316 129.256424,225.662933 149.022232,222.624252 
	C168.542465,219.623322 184.157837,209.251648 194.793030,191.341187 
	C199.873901,181.863708 202.821533,171.891037 201.961929,160.091446 
	C203.132278,126.636459 174.365097,99.342628 140.546204,99.099686 
	C140.369675,99.121994 140.193161,99.144302 139.140594,99.074768 
M90.511269,259.926025 
	C126.310417,259.925964 162.109558,259.928589 197.908707,259.918274 
	C199.737045,259.917725 201.607346,260.030273 203.384537,259.697388 
	C206.608032,259.093597 208.235992,257.069427 207.989670,253.658920 
	C207.591797,248.149307 203.563751,248.192474 199.635590,248.190506 
	C162.504379,248.171890 125.373169,248.178101 88.241959,248.177444 
	C85.910851,248.177414 83.579399,248.154373 81.248711,248.186417 
	C75.656906,248.263245 73.019257,250.105255 72.956291,253.938446 
	C72.892616,257.814514 75.594780,259.835175 81.026344,259.914490 
	C83.856392,259.955811 86.687500,259.924500 90.511269,259.926025 
M74.045662,281.661469 
	C71.780014,287.734344 73.899223,290.952240 80.307396,290.955902 
	C120.083603,290.978607 159.859833,290.971954 199.636063,290.953552 
	C201.122681,290.952850 202.679703,290.972992 204.082260,290.565094 
	C207.903442,289.453766 209.717896,284.591431 207.051651,281.772980 
	C205.656891,280.298553 203.011459,279.297791 200.926682,279.290558 
	C160.651703,279.150421 120.376045,279.164673 80.100838,279.270416 
	C78.257462,279.275238 76.417114,280.435242 74.045662,281.661469 
M145.982529,316.411652 
	C146.182114,311.728668 143.219971,310.249512 139.298218,310.235046 
	C119.480759,310.162201 99.662781,310.169464 79.845245,310.231781 
	C76.161400,310.243378 73.102165,311.665527 73.014931,315.891052 
	C72.922768,320.355469 75.906456,321.942657 79.916367,321.947632 
	C99.734192,321.972198 119.552078,321.970001 139.369904,321.942963 
	C142.633316,321.938507 145.298782,320.933319 145.982529,316.411652 
z"/>
<path fill="#7BB3E5" opacity="1.000000" stroke="none" 
	d="
M256.240662,385.913635 
	C251.788986,384.745483 248.431671,382.210052 249.311050,377.960358 
	C249.849640,375.357605 252.738174,372.223846 255.291840,371.282074 
	C259.655060,369.673004 263.444550,372.345062 264.038086,376.081024 
	C264.997803,382.121796 262.967743,384.827820 256.240662,385.913635 
z"/>
<path fill="#A3CBEF" opacity="1.000000" stroke="none" 
	d="
M310.985718,200.167374 
	C291.117157,198.812943 273.996216,190.962524 259.300781,177.799683 
	C237.657181,158.413284 227.664078,133.921448 227.990677,105.003868 
	C228.126007,93.020828 228.026199,81.035141 228.039886,68.591553 
	C254.408981,68.096375 280.771515,68.060310 307.608887,68.476852 
	C309.533203,83.031868 319.227600,92.040382 333.271698,92.066109 
	C367.085693,92.128052 400.899811,92.090698 434.713898,92.094208 
	C444.952393,92.095268 444.952393,92.096481 444.993835,102.471687 
	C445.049377,116.380287 452.270355,124.415520 466.175598,126.041885 
	C466.198792,150.728088 466.221985,175.414276 466.169312,200.566650 
	C425.147247,201.031418 384.201111,201.030029 342.706482,200.571182 
	C342.105347,196.822998 342.011261,193.532303 342.007233,190.241516 
	C341.990143,176.323257 341.999908,176.323242 327.351929,177.146927 
	C321.844482,177.084839 316.788727,177.084839 310.985718,177.084839 
	C310.985718,185.309143 310.985718,192.738251 310.985718,200.167374 
M367.622620,155.877289 
	C372.691223,160.944138 377.725433,166.045990 382.838104,171.067963 
	C387.937531,176.076904 389.653870,176.069748 394.841553,170.922165 
	C404.542572,161.296219 414.172821,151.598999 423.860657,141.959717 
	C425.076752,140.749710 426.462860,139.710617 428.582397,137.897614 
	C428.825989,141.188202 428.736359,143.339188 429.191498,145.367920 
	C429.947968,148.739807 431.874847,151.197571 435.726807,150.969589 
	C439.397430,150.752319 440.994476,148.328171 441.034180,144.921783 
	C441.121582,137.423721 441.106293,129.923294 441.026459,122.424973 
	C440.988434,118.851044 438.824402,116.624428 435.464020,116.502380 
	C427.647095,116.218475 419.779114,115.969353 412.010681,116.631302 
	C409.916382,116.809761 408.104340,120.300652 406.162720,122.271065 
	C408.189758,124.151855 409.944641,126.604294 412.327118,127.738449 
	C414.351349,128.702072 417.099457,128.145096 420.590088,128.311630 
	C418.880188,130.244476 417.886444,131.488831 416.769623,132.610626 
	C409.126587,140.287903 401.460266,147.941940 393.796417,155.598450 
	C388.912018,160.478165 388.899872,160.482574 384.168274,155.754059 
	C367.074646,138.671494 350.007355,121.562500 332.883728,104.510094 
	C328.291321,99.936813 325.606689,99.782761 321.417389,103.954529 
	C301.577423,123.711609 281.805725,143.537216 261.997284,163.325958 
	C259.235199,166.085266 257.721008,169.055038 260.697388,172.497742 
	C263.001984,175.163406 266.814240,174.611099 270.329163,171.301788 
	C271.542145,170.159775 272.699951,168.959015 273.878998,167.781097 
	C290.149750,151.525558 306.481262,135.329971 322.635406,118.959343 
	C325.668060,115.886024 327.671234,115.736717 330.765137,118.905571 
	C342.756500,131.187561 354.983643,143.239395 367.622620,155.877289 
z"/>
<path fill="#D1E5F7" opacity="1.000000" stroke="none" 
	d="
M466.304749,125.654274 
	C452.270355,124.415520 445.049377,116.380287 444.993835,102.471687 
	C444.952393,92.096481 444.952393,92.095268 434.713898,92.094208 
	C400.899811,92.090698 367.085693,92.128052 333.271698,92.066109 
	C319.227600,92.040382 309.533203,83.031868 308.079712,68.530388 
	C320.894135,68.066360 333.712524,67.953926 346.531006,67.945381 
	C384.163300,67.920296 421.795563,67.936501 459.427856,67.936531 
	C461.559448,67.936539 463.691040,67.936531 466.433929,67.936531 
	C466.433929,87.409668 466.433929,106.338165 466.304749,125.654274 
z"/>
<path fill="#FFC44E" opacity="1.000000" stroke="none" 
	d="
M141.078140,99.141678 
	C174.365097,99.342628 203.132278,126.636459 201.440582,160.548660 
	C180.965942,160.959305 161.012650,160.912735 141.043655,160.408844 
	C141.044678,139.681580 141.061401,119.411629 141.078140,99.141678 
z"/>
<path fill="#8ABA55" opacity="1.000000" stroke="none" 
	d="
M311.055542,200.614838 
	C310.985718,192.738251 310.985718,185.309143 310.985718,177.084839 
	C316.788727,177.084839 321.844482,177.084839 327.352600,177.602264 
	C327.815826,213.003159 327.805389,247.886642 327.854065,282.770050 
	C327.864746,290.424316 330.366516,292.835327 338.042633,292.980713 
	C339.371033,293.005859 340.700317,292.981628 342.029236,292.980225 
	C342.092834,299.306427 342.051331,305.636139 342.262421,311.957458 
	C342.375641,315.348083 340.800049,316.211212 337.729462,316.152679 
	C330.736023,316.019348 323.726105,315.867004 316.746521,316.207275 
	C312.271637,316.425385 311.104431,314.817596 311.123779,310.498566 
	C311.275360,276.684967 311.208313,242.870392 311.202179,209.056122 
	C311.201691,206.391510 311.152130,203.726913 311.055542,200.614838 
z"/>
<path fill="#8ABA56" opacity="1.000000" stroke="none" 
	d="
M96.855606,204.638245 
	C86.946053,194.936066 81.483620,183.138916 78.928322,169.513657 
	C74.257088,144.605820 91.166519,116.489929 110.671333,107.212311 
	C109.852371,110.444199 108.603165,113.367188 107.757355,116.402588 
	C101.229591,139.829102 106.255722,160.426605 123.029594,178.295364 
	C123.006065,178.503540 122.965317,178.920563 122.681366,179.097076 
	C113.883476,187.728485 105.369537,196.183365 96.855606,204.638245 
z"/>
<path fill="#EF4B52" opacity="1.000000" stroke="none" 
	d="
M96.965164,204.925537 
	C105.369537,196.183365 113.883476,187.728485 122.982941,179.255600 
	C125.260918,180.567261 126.923309,181.937439 128.650543,183.220291 
	C144.343491,194.875824 161.525864,199.971924 180.972076,195.055725 
	C185.419983,193.931259 189.873444,192.828781 194.324356,191.716187 
	C184.157837,209.251648 168.542465,219.623322 149.022232,222.624252 
	C129.256424,225.662933 111.551392,219.495316 96.965164,204.925537 
z"/>
<path fill="#F48085" opacity="1.000000" stroke="none" 
	d="
M194.558685,191.528687 
	C189.873444,192.828781 185.419983,193.931259 180.972076,195.055725 
	C161.525864,199.971924 144.343491,194.875824 128.650543,183.220291 
	C126.923309,181.937439 125.260918,180.567261 123.266891,179.079071 
	C122.965317,178.920563 123.006065,178.503540 123.319946,178.125595 
	C129.130051,172.220413 134.626266,166.693192 140.358841,161.097672 
	C140.595200,161.029388 141.059372,160.866150 141.059372,160.866150 
	C161.012650,160.912735 180.965942,160.959305 201.377075,161.005493 
	C202.821533,171.891037 199.873901,181.863708 194.558685,191.528687 
z"/>
<path fill="#ADCF88" opacity="1.000000" stroke="none" 
	d="
M140.122498,161.165955 
	C134.626266,166.693192 129.130051,172.220413 123.343475,177.917419 
	C106.255722,160.426605 101.229591,139.829102 107.757355,116.402588 
	C108.603165,113.367188 109.852371,110.444199 111.010422,107.084267 
	C119.702980,101.407768 129.202011,99.433151 139.575897,99.577904 
	C140.048294,120.442680 140.085388,140.804321 140.122498,161.165955 
z"/>
<path fill="#8ABA55" opacity="1.000000" stroke="none" 
	d="
M279.986084,292.982147 
	C280.047638,299.307068 280.040283,305.633789 280.201569,311.956146 
	C280.275452,314.851440 279.311829,316.202881 276.203949,316.148590 
	C268.545868,316.014740 260.882538,316.024719 253.224030,316.146179 
	C250.225861,316.193726 249.118469,315.060974 249.125488,312.054596 
	C249.191589,283.744263 249.190140,255.433655 249.126633,227.123322 
	C249.119965,224.153229 250.136337,222.875031 253.192169,223.023010 
	C256.847748,223.200043 260.517242,223.088852 264.654419,223.605042 
	C265.139801,237.062073 265.146973,250.016571 265.165100,262.971069 
	C265.174408,269.614166 265.035217,276.263184 265.268951,282.898743 
	C265.518707,289.989929 268.511536,292.772522 275.502075,292.972504 
	C276.995605,293.015259 278.491364,292.980927 279.986084,292.982147 
z"/>
<path fill="#ADCF88" opacity="1.000000" stroke="none" 
	d="
M342.097748,292.516998 
	C340.700317,292.981628 339.371033,293.005859 338.042633,292.980713 
	C330.366516,292.835327 327.864746,290.424316 327.854065,282.770050 
	C327.805389,247.886642 327.815826,213.003159 327.804321,177.664352 
	C341.999908,176.323242 341.990143,176.323257 342.007233,190.241516 
	C342.011261,193.532303 342.105347,196.822998 342.260620,200.576996 
	C342.297607,231.378098 342.231934,261.715942 342.097748,292.516998 
z"/>
<path fill="#FFFFFF" opacity="1.000000" stroke="none" 
	d="
M90.014694,259.926025 
	C86.687500,259.924500 83.856392,259.955811 81.026344,259.914490 
	C75.594780,259.835175 72.892616,257.814514 72.956291,253.938446 
	C73.019257,250.105255 75.656906,248.263245 81.248711,248.186417 
	C83.579399,248.154373 85.910851,248.177414 88.241959,248.177444 
	C125.373169,248.178101 162.504379,248.171890 199.635590,248.190506 
	C203.563751,248.192474 207.591797,248.149307 207.989670,253.658920 
	C208.235992,257.069427 206.608032,259.093597 203.384537,259.697388 
	C201.607346,260.030273 199.737045,259.917725 197.908707,259.918274 
	C162.109558,259.928589 126.310417,259.925964 90.014694,259.926025 
z"/>
<path fill="#FEFEFF" opacity="1.000000" stroke="none" 
	d="
M74.310509,281.359344 
	C76.417114,280.435242 78.257462,279.275238 80.100838,279.270416 
	C120.376045,279.164673 160.651703,279.150421 200.926682,279.290558 
	C203.011459,279.297791 205.656891,280.298553 207.051651,281.772980 
	C209.717896,284.591431 207.903442,289.453766 204.082260,290.565094 
	C202.679703,290.972992 201.122681,290.952850 199.636063,290.953552 
	C159.859833,290.971954 120.083603,290.978607 80.307396,290.955902 
	C73.899223,290.952240 71.780014,287.734344 74.310509,281.359344 
z"/>
<path fill="#8ABA55" opacity="1.000000" stroke="none" 
	d="
M404.084503,292.967957 
	C404.151550,299.287537 404.163361,305.608398 404.310547,311.926147 
	C404.377197,314.787415 403.418671,316.196289 400.307831,316.145020 
	C392.655182,316.018951 384.997498,316.018677 377.344971,316.150330 
	C374.309723,316.202484 373.239716,314.985596 373.250458,312.034943 
	C373.315948,294.063080 373.315826,276.090698 373.250793,258.118835 
	C373.240051,255.147598 374.348724,253.899261 377.374756,254.040222 
	C381.194366,254.218109 385.026733,254.123001 389.321228,254.652145 
	C389.819122,264.740601 389.776642,274.323547 389.906036,283.904175 
	C389.988403,290.002533 392.615753,292.624542 398.633667,292.942627 
	C400.445984,293.038422 402.267303,292.964264 404.084503,292.967957 
z"/>
<path fill="#ADCF88" opacity="1.000000" stroke="none" 
	d="
M280.051331,292.518921 
	C278.491364,292.980927 276.995605,293.015259 275.502075,292.972504 
	C268.511536,292.772522 265.518707,289.989929 265.268951,282.898743 
	C265.035217,276.263184 265.174408,269.614166 265.165100,262.971069 
	C265.146973,250.016571 265.139801,237.062073 265.126953,223.653168 
	C268.447723,223.144943 271.782227,223.252930 275.088257,222.995605 
	C279.059052,222.686569 280.284271,224.435684 280.259613,228.233139 
	C280.121399,249.506729 280.146942,270.781372 280.051331,292.518921 
z"/>
<path fill="#FEFEFF" opacity="1.000000" stroke="none" 
	d="
M145.968140,316.813293 
	C145.298782,320.933319 142.633316,321.938507 139.369904,321.942963 
	C119.552078,321.970001 99.734192,321.972198 79.916367,321.947632 
	C75.906456,321.942657 72.922768,320.355469 73.014931,315.891052 
	C73.102165,311.665527 76.161400,310.243378 79.845245,310.231781 
	C99.662781,310.169464 119.480759,310.162201 139.298218,310.235046 
	C143.219971,310.249512 146.182114,311.728668 145.968140,316.813293 
z"/>
<path fill="#ADCF88" opacity="1.000000" stroke="none" 
	d="
M404.155762,292.505554 
	C402.267303,292.964264 400.445984,293.038422 398.633667,292.942627 
	C392.615753,292.624542 389.988403,290.002533 389.906036,283.904175 
	C389.776642,274.323547 389.819122,264.740601 389.770264,254.706665 
	C392.896118,254.184631 396.051758,254.256470 399.182098,254.008667 
	C403.127350,253.696381 404.425629,255.472473 404.369385,259.245667 
	C404.206543,270.176453 404.259033,281.110413 404.155762,292.505554 
z"/>
<path fill="#C8CA8A" opacity="1.000000" stroke="none" 
	d="
M140.358856,161.097672 
	C140.085388,140.804321 140.048294,120.442680 140.013916,99.623825 
	C140.193161,99.144302 140.369675,99.121994 140.812164,99.120682 
	C141.061401,119.411629 141.044678,139.681580 141.043655,160.408844 
	C141.059372,160.866150 140.595200,161.029388 140.358856,161.097672 
z"/>
<path fill="#F3F8FB" opacity="1.000000" stroke="none" 
	d="
M367.372803,155.627106 
	C354.983643,143.239395 342.756500,131.187561 330.765137,118.905571 
	C327.671234,115.736717 325.668060,115.886024 322.635406,118.959343 
	C306.481262,135.329971 290.149750,151.525558 273.878998,167.781097 
	C272.699951,168.959015 271.542145,170.159775 270.329163,171.301788 
	C266.814240,174.611099 263.001984,175.163406 260.697388,172.497742 
	C257.721008,169.055038 259.235199,166.085266 261.997284,163.325958 
	C281.805725,143.537216 301.577423,123.711609 321.417389,103.954529 
	C325.606689,99.782761 328.291321,99.936813 332.883728,104.510094 
	C350.007355,121.562500 367.074646,138.671494 384.168274,155.754059 
	C388.899872,160.482574 388.912018,160.478165 393.796417,155.598450 
	C401.460266,147.941940 409.126587,140.287903 416.769623,132.610626 
	C417.886444,131.488831 418.880188,130.244476 420.590088,128.311630 
	C417.099457,128.145096 414.351349,128.702072 412.327118,127.738449 
	C409.944641,126.604294 408.189758,124.151855 406.162720,122.271057 
	C408.104340,120.300652 409.916382,116.809761 412.010681,116.631302 
	C419.779114,115.969353 427.647095,116.218475 435.464020,116.502380 
	C438.824402,116.624428 440.988434,118.851044 441.026459,122.424973 
	C441.106293,129.923294 441.121582,137.423721 441.034180,144.921783 
	C440.994476,148.328171 439.397430,150.752319 435.726807,150.969589 
	C431.874847,151.197571 429.947968,148.739807 429.191498,145.367920 
	C428.736359,143.339188 428.825989,141.188202 428.582397,137.897614 
	C426.462860,139.710617 425.076752,140.749710 423.860657,141.959717 
	C414.172821,151.598999 404.542572,161.296219 394.841553,170.922165 
	C389.653870,176.069748 387.937531,176.076904 382.838104,171.067963 
	C377.725433,166.045990 372.691223,160.944138 367.372803,155.627106 
z"/>
</svg>