<svg version="1.1" id="Layer_1" xmlns="http://www.w3.org/2000/svg" xmlns:xlink="http://www.w3.org/1999/xlink" x="0px" y="0px"
	 width="100%" viewBox="0 0 512 512" enable-background="new 0 0 512 512" xml:space="preserve">
<path fill="#000000" opacity="1.000000" stroke="none" 
	d="
M513.000000,193.000000 
	C513.000000,299.973999 513.000000,406.447998 513.000000,512.960999 
	C342.401001,512.960999 171.801971,512.960999 1.101477,512.960999 
	C1.101477,342.442688 1.101477,171.885315 1.101477,1.163961 
	C171.666534,1.163961 342.333252,1.163961 513.000000,1.163961 
	C513.000000,64.864655 513.000000,128.682327 513.000000,193.000000 
M62.999775,299.502197 
	C63.330421,300.923065 63.724377,302.332581 63.982162,303.766541 
	C67.495674,323.311096 74.588974,341.647614 84.484245,358.677765 
	C96.930267,380.097809 113.121658,398.438812 132.458405,414.176849 
	C151.854141,429.962891 172.964264,443.091492 193.938202,456.510834 
	C210.813751,467.307953 228.312637,477.219238 242.895111,491.313385 
	C252.828568,500.914246 261.282349,500.434814 271.571747,491.075043 
	C276.866547,486.258728 282.616882,481.849243 288.572571,477.871582 
	C304.245911,467.403625 320.028137,457.088074 335.978729,447.048157 
	C364.332550,429.201233 391.480316,409.943451 412.839447,383.649170 
	C425.752075,367.752930 436.140228,350.423340 443.079437,331.055420 
	C448.361237,316.313385 451.955750,301.215363 454.140045,285.724976 
	C456.279602,270.551910 458.973175,255.453247 460.908813,240.256363 
	C462.360046,228.862701 463.231140,217.379547 463.934418,205.910095 
	C464.844604,191.066940 465.605499,176.203674 465.924530,161.338211 
	C466.260529,145.682251 466.000153,130.013474 465.999908,114.350304 
	C465.999725,104.337517 462.786194,100.266899 453.036621,96.923859 
	C436.205719,91.152679 419.268829,85.624573 402.709351,79.143829 
	C380.304504,70.375465 361.708008,55.253746 342.688171,41.044380 
	C321.988281,25.579889 298.550171,18.557648 273.193970,17.083467 
	C264.226257,16.562098 255.202805,17.011501 246.204819,16.997290 
	C233.357941,16.977001 220.917206,19.427111 208.556442,22.742342 
	C187.871246,28.290232 171.497833,41.213856 154.857605,53.680672 
	C138.773407,65.730911 121.798088,76.190948 102.811279,83.002434 
	C88.347183,88.191406 73.730377,92.953827 59.196434,97.949425 
	C52.766384,100.159561 48.972424,104.897758 49.041447,111.254433 
	C49.263222,131.679932 49.509369,152.107590 50.046963,172.526505 
	C50.464596,188.388992 51.219288,204.245529 52.047184,220.093063 
	C52.467014,228.129456 53.181278,236.163467 54.121780,244.156250 
	C55.208057,253.387878 56.541668,262.597229 58.042561,271.771332 
	C59.512142,280.754089 61.327187,289.680328 62.999775,299.502197 
z"/>
<path fill="#009CFF" opacity="1.000000" stroke="none" 
	d="
M62.995190,299.066772 
	C61.327187,289.680328 59.512142,280.754089 58.042561,271.771332 
	C56.541668,262.597229 55.208057,253.387878 54.121780,244.156250 
	C53.181278,236.163467 52.467014,228.129456 52.047184,220.093063 
	C51.219288,204.245529 50.464596,188.388992 50.046963,172.526505 
	C49.509369,152.107590 49.263222,131.679932 49.041447,111.254433 
	C48.972424,104.897758 52.766384,100.159561 59.196434,97.949425 
	C73.730377,92.953827 88.347183,88.191406 102.811279,83.002434 
	C121.798088,76.190948 138.773407,65.730911 154.857605,53.680672 
	C171.497833,41.213856 187.871246,28.290232 208.556442,22.742342 
	C220.917206,19.427111 233.357941,16.977001 246.204819,16.997290 
	C255.202805,17.011501 264.226257,16.562098 273.193970,17.083467 
	C298.550171,18.557648 321.988281,25.579889 342.688171,41.044380 
	C361.708008,55.253746 380.304504,70.375465 402.709351,79.143829 
	C419.268829,85.624573 436.205719,91.152679 453.036621,96.923859 
	C462.786194,100.266899 465.999725,104.337517 465.999908,114.350304 
	C466.000153,130.013474 466.260529,145.682251 465.924530,161.338211 
	C465.605499,176.203674 464.844604,191.066940 463.934418,205.910095 
	C463.231140,217.379547 462.360046,228.862701 460.908813,240.256363 
	C458.973175,255.453247 456.279602,270.551910 454.140045,285.724976 
	C451.955750,301.215363 448.361237,316.313385 443.079437,331.055420 
	C436.140228,350.423340 425.752075,367.752930 412.839447,383.649170 
	C391.480316,409.943451 364.332550,429.201233 335.978729,447.048157 
	C320.028137,457.088074 304.245911,467.403625 288.572571,477.871582 
	C282.616882,481.849243 276.866547,486.258728 271.571747,491.075043 
	C261.282349,500.434814 252.828568,500.914246 242.895111,491.313385 
	C228.312637,477.219238 210.813751,467.307953 193.938202,456.510834 
	C172.964264,443.091492 151.854141,429.962891 132.458405,414.176849 
	C113.121658,398.438812 96.930267,380.097809 84.484245,358.677765 
	C74.588974,341.647614 67.495674,323.311096 63.982162,303.766541 
	C63.724377,302.332581 63.330421,300.923065 62.995190,299.066772 
M425.045532,261.217682 
	C426.036530,253.690201 427.295135,246.186417 427.964172,238.630417 
	C429.466187,221.667999 431.009888,204.697418 431.914520,187.697083 
	C432.920959,168.783005 433.094757,149.825729 433.959320,130.902237 
	C434.160309,126.502602 432.362854,125.001404 428.601593,123.621155 
	C414.085449,118.294296 399.452637,113.166656 385.332855,106.905884 
	C363.433655,97.195732 344.159729,83.118317 325.193909,68.657463 
	C314.927277,60.829475 304.129822,54.030899 290.123383,52.018211 
	C274.117218,51.345478 258.114258,50.568035 242.102600,50.072590 
	C238.027740,49.946507 233.892441,50.499222 229.841003,51.111267 
	C212.231567,53.771496 197.719162,62.832741 183.983337,73.497597 
	C168.935104,85.181435 153.483582,96.384125 136.088745,104.279655 
	C118.473022,112.275459 100.418823,119.305237 82.000000,126.990425 
	C82.000000,127.456589 81.958565,129.116623 82.006248,130.774094 
	C82.663681,153.625153 83.301941,176.476837 84.019791,199.326004 
	C84.227066,205.923538 84.341515,212.550522 85.073044,219.099808 
	C86.869392,235.182312 88.481804,251.313950 91.144188,267.262909 
	C93.732048,282.765350 96.617989,298.331696 101.001350,313.396179 
	C109.153267,341.412140 125.661308,364.086823 147.587311,383.332214 
	C167.206650,400.552948 189.427399,413.772583 211.234940,427.726318 
	C226.700424,437.622009 241.937561,447.874542 257.970032,458.424103 
	C263.054199,454.781097 269.081635,450.097198 275.461945,445.957153 
	C296.712433,432.168121 318.338287,418.943481 339.342529,404.793365 
	C357.436737,392.603668 374.207581,378.860931 388.115021,361.641663 
	C405.357361,340.293427 415.021515,315.939728 419.988007,289.360687 
	C421.687500,280.265625 423.230835,271.141388 425.045532,261.217682 
z"/>
<path fill="#000000" opacity="1.000000" stroke="none" 
	d="
M424.845520,262.030487 
	C423.230835,271.141388 421.687500,280.265625 419.988007,289.360687 
	C415.021515,315.939728 405.357361,340.293427 388.115021,361.641663 
	C374.207581,378.860931 357.436737,392.603668 339.342529,404.793365 
	C318.338287,418.943481 296.712433,432.168121 275.461945,445.957153 
	C269.081635,450.097198 263.054199,454.781097 257.970032,458.424103 
	C241.937561,447.874542 226.700424,437.622009 211.234940,427.726318 
	C189.427399,413.772583 167.206650,400.552948 147.587311,383.332214 
	C125.661308,364.086823 109.153267,341.412140 101.001350,313.396179 
	C96.617989,298.331696 93.732048,282.765350 91.144188,267.262909 
	C88.481804,251.313950 86.869392,235.182312 85.073044,219.099808 
	C84.341515,212.550522 84.227066,205.923538 84.019791,199.326004 
	C83.301941,176.476837 82.663681,153.625153 82.006248,130.774094 
	C81.958565,129.116623 82.000000,127.456589 82.000000,126.990425 
	C100.418823,119.305237 118.473022,112.275459 136.088745,104.279655 
	C153.483582,96.384125 168.935104,85.181435 183.983337,73.497597 
	C197.719162,62.832741 212.231567,53.771496 229.841003,51.111267 
	C233.892441,50.499222 238.027740,49.946507 242.102600,50.072590 
	C258.114258,50.568035 274.117218,51.345478 290.419525,52.392776 
	C267.489319,67.578117 251.127899,87.861969 241.547806,113.938370 
	C239.784149,114.011612 238.418533,113.860687 237.126602,114.102829 
	C220.952652,117.134232 205.644730,122.436363 191.543915,131.111710 
	C171.770523,143.277023 156.284561,159.574661 145.567368,180.036972 
	C131.949493,206.037628 127.532166,233.865646 133.193695,262.680939 
	C138.782776,291.127563 152.409210,315.260773 174.726669,334.334625 
	C194.087158,350.881287 216.126007,360.844116 241.400620,364.095642 
	C261.056305,366.624237 280.309784,364.958923 298.863953,358.427734 
	C319.047272,351.322998 336.527466,339.875671 350.980286,323.712097 
	C362.790131,310.504272 371.431335,295.702789 377.510376,279.017365 
	C387.186462,276.349731 396.585938,274.094574 405.658600,270.908783 
	C412.277344,268.584656 418.465454,265.034241 424.845520,262.030487 
z"/>
<path fill="#64DDFF" opacity="1.000000" stroke="none" 
	d="
M424.945557,261.624084 
	C418.465454,265.034241 412.277344,268.584656 405.658600,270.908783 
	C396.585938,274.094574 387.186462,276.349731 377.481140,278.623718 
	C383.103699,258.736908 384.883911,238.844147 381.480713,218.696960 
	C376.805298,191.017883 364.101227,167.610123 343.749603,148.107010 
	C326.046753,131.142273 305.239655,120.749596 281.411835,115.769310 
	C268.331726,113.035416 255.189117,113.132385 241.980087,113.896866 
	C251.127899,87.861969 267.489319,67.578117 290.848999,52.451260 
	C304.129822,54.030899 314.927277,60.829475 325.193909,68.657463 
	C344.159729,83.118317 363.433655,97.195732 385.332855,106.905884 
	C399.452637,113.166656 414.085449,118.294296 428.601593,123.621155 
	C432.362854,125.001404 434.160309,126.502602 433.959320,130.902237 
	C433.094757,149.825729 432.920959,168.783005 431.914520,187.697083 
	C431.009888,204.697418 429.466187,221.667999 427.964172,238.630417 
	C427.295135,246.186417 426.036530,253.690201 424.945557,261.624084 
z"/>
<path fill="#005FC1" opacity="1.000000" stroke="none" 
	d="
M241.547806,113.938370 
	C255.189117,113.132385 268.331726,113.035416 281.411835,115.769310 
	C305.239655,120.749596 326.046753,131.142273 343.749603,148.107010 
	C364.101227,167.610123 376.805298,191.017883 381.480713,218.696960 
	C384.883911,238.844147 383.103699,258.736908 377.064514,278.637390 
	C371.431335,295.702789 362.790131,310.504272 350.980286,323.712097 
	C336.527466,339.875671 319.047272,351.322998 298.863953,358.427734 
	C280.309784,364.958923 261.056305,366.624237 241.400620,364.095642 
	C216.126007,360.844116 194.087158,350.881287 174.726669,334.334625 
	C152.409210,315.260773 138.782776,291.127563 133.193695,262.680939 
	C127.532166,233.865646 131.949493,206.037628 145.567368,180.036972 
	C156.284561,159.574661 171.770523,143.277023 191.543915,131.111710 
	C205.644730,122.436363 220.952652,117.134232 237.126602,114.102829 
	C238.418533,113.860687 239.784149,114.011612 241.547806,113.938370 
M233.179901,149.023010 
	C219.888977,152.689621 208.116302,158.959656 197.443344,167.864807 
	C184.476044,178.684296 175.577042,192.004150 169.717163,207.619919 
	C163.487671,224.220642 162.184967,241.289124 166.135178,258.469177 
	C171.419952,281.453430 183.245789,300.423309 202.671951,314.320343 
	C215.401596,323.426849 229.355698,329.137115 244.972580,331.180878 
	C261.338257,333.322662 277.014038,331.500488 292.312469,325.353363 
	C302.496155,321.261414 311.488037,315.498932 319.649200,308.167725 
	C328.805664,299.942444 336.325928,290.644745 341.629822,278.916901 
	C342.341553,277.833832 343.247833,276.831482 343.735779,275.655548 
	C351.070068,257.979462 352.998688,239.717392 349.340515,220.926849 
	C347.631042,212.146027 345.010254,203.662460 340.182190,195.556396 
	C338.849884,196.720383 337.803192,197.491943 336.925568,198.422882 
	C322.095520,214.154327 307.254730,229.875946 292.499023,245.676941 
	C289.482483,248.907135 286.802399,252.451462 283.371124,256.176025 
	C278.750061,261.114288 274.103851,266.029358 269.516602,270.998840 
	C266.393524,274.382141 263.476746,277.963409 260.250214,281.242096 
	C253.044968,288.563904 243.476089,291.035339 236.487350,284.705658 
	C223.083771,272.566132 210.276871,259.750854 197.527328,246.913101 
	C191.016922,240.357712 193.757477,227.039917 201.861862,222.555328 
	C209.199554,218.494995 217.774918,220.222824 223.760406,226.263748 
	C230.903763,233.473267 238.035843,240.693939 245.317795,248.056366 
	C250.381866,242.631882 255.209122,237.461075 260.700989,232.095749 
	C261.473083,231.475769 262.331177,230.937012 263.004517,230.223785 
	C274.888092,217.635925 286.755249,205.032608 298.612732,192.420135 
	C305.743927,184.834839 312.852386,177.228149 320.091827,169.502182 
	C318.569763,168.100586 317.530640,167.026627 316.375214,166.097260 
	C299.714722,152.696869 280.607849,145.500839 259.313507,145.380356 
	C250.870544,145.332565 242.413498,147.776993 233.179901,149.023010 
z"/>
<path fill="#000000" opacity="1.000000" stroke="none" 
	d="
M340.954773,279.156891 
	C336.325928,290.644745 328.805664,299.942444 319.649200,308.167725 
	C311.488037,315.498932 302.496155,321.261414 292.312469,325.353363 
	C277.014038,331.500488 261.338257,333.322662 244.972580,331.180878 
	C229.355698,329.137115 215.401596,323.426849 202.671951,314.320343 
	C183.245789,300.423309 171.419952,281.453430 166.135178,258.469177 
	C162.184967,241.289124 163.487671,224.220642 169.717163,207.619919 
	C175.577042,192.004150 184.476044,178.684296 197.443344,167.864807 
	C208.116302,158.959656 219.888977,152.689621 233.587799,149.513519 
	C233.838898,162.495087 234.853348,174.842163 237.970505,187.000366 
	C242.232925,203.625656 249.160049,218.908844 260.036377,232.290283 
	C255.209122,237.461075 250.381866,242.631882 245.317795,248.056366 
	C238.035843,240.693939 230.903763,233.473267 223.760406,226.263748 
	C217.774918,220.222824 209.199554,218.494995 201.861862,222.555328 
	C193.757477,227.039917 191.016922,240.357712 197.527328,246.913101 
	C210.276871,259.750854 223.083771,272.566132 236.487350,284.705658 
	C243.476089,291.035339 253.044968,288.563904 260.250214,281.242096 
	C263.476746,277.963409 266.393524,274.382141 269.516602,270.998840 
	C274.103851,266.029358 278.750061,261.114288 283.997192,256.147400 
	C301.228973,269.107666 320.143372,276.451538 340.954773,279.156891 
z"/>
<path fill="#64DCFF" opacity="1.000000" stroke="none" 
	d="
M260.368683,232.193024 
	C249.160049,218.908844 242.232925,203.625656 237.970505,187.000366 
	C234.853348,174.842163 233.838898,162.495087 233.979279,149.545380 
	C242.413498,147.776993 250.870544,145.332565 259.313507,145.380356 
	C280.607849,145.500839 299.714722,152.696869 316.375214,166.097260 
	C317.530640,167.026627 318.569763,168.100586 320.091827,169.502182 
	C312.852386,177.228149 305.743927,184.834839 298.612732,192.420135 
	C286.755249,205.032608 274.888092,217.635925 263.004517,230.223785 
	C262.331177,230.937012 261.473083,231.475769 260.368683,232.193024 
z"/>
<path fill="#63DCFF" opacity="1.000000" stroke="none" 
	d="
M341.292297,279.036896 
	C320.143372,276.451538 301.228973,269.107666 284.295227,255.984894 
	C286.802399,252.451462 289.482483,248.907135 292.499023,245.676941 
	C307.254730,229.875946 322.095520,214.154327 336.925568,198.422882 
	C337.803192,197.491943 338.849884,196.720383 340.182190,195.556396 
	C345.010254,203.662460 347.631042,212.146027 349.340515,220.926849 
	C352.998688,239.717392 351.070068,257.979462 343.735779,275.655548 
	C343.247833,276.831482 342.341553,277.833832 341.292297,279.036896 
z"/>
</svg>